M48
; DRILL file {KiCad 7.0.9} date Fri Dec  8 01:22:48 2023
; FORMAT={-:-/ absolute / metric / decimal}
; #@! TF.CreationDate,2023-12-08T01:22:48+08:00
; #@! TF.GenerationSoftware,Kicad,Pcbnew,7.0.9
; #@! TF.FileFunction,MixedPlating,1,2
FMAT,2
METRIC
; #@! TA.AperFunction,Plated,PTH,ViaDrill
T1C0.300
; #@! TA.AperFunction,Plated,PTH,ViaDrill
T2C0.400
; #@! TA.AperFunction,Plated,PTH,ComponentDrill
T3C0.550
; #@! TA.AperFunction,Plated,PTH,ComponentDrill
T4C0.850
; #@! TA.AperFunction,Plated,PTH,ComponentDrill
T5C1.000
; #@! TA.AperFunction,NonPlated,NPTH,ComponentDrill
T6C0.800
; #@! TA.AperFunction,NonPlated,NPTH,ComponentDrill
T7C0.900
; #@! TA.AperFunction,NonPlated,NPTH,ComponentDrill
T8C2.200
%
G90
G05
T1
X139.7Y-96.3
X145.2Y-92.8
X145.423Y-90.705
X150.405Y-101.905
X151.45Y-102.85
X152.611Y-102.408
X154.05Y-102.35
X156.8Y-99.8
X161.0Y-91.0
X165.0Y-102.4
X165.4Y-96.9
X165.4Y-98.4
X166.2Y-102.4
X169.8Y-102.3
X174.0Y-101.9
T2
X138.7Y-85.8
X146.6Y-88.9
X151.1Y-100.6
X151.6Y-94.2
X152.2Y-90.5
X168.0Y-90.0
T5
X146.761Y-81.443
X147.828Y-106.299
X149.301Y-81.443
X150.368Y-106.299
X151.841Y-81.443
X152.908Y-106.299
X154.381Y-81.443
X155.448Y-106.299
X158.242Y-81.443
X160.782Y-81.443
X163.322Y-81.443
X165.862Y-81.443
T6
X171.145Y-89.2
X171.145Y-94.2
T7
X135.17Y-87.563
X135.17Y-90.563
T8
X137.0Y-81.0
X137.0Y-107.0
X172.0Y-81.0
X172.0Y-107.0
T3
G00X173.57Y-87.825
M15
G01X174.22Y-87.825
M16
G05
G00X173.57Y-95.575
M15
G01X174.22Y-95.575
M16
G05
T4
G00X169.82Y-87.975
M15
G01X170.37Y-87.975
M16
G05
G00X169.82Y-95.425
M15
G01X170.37Y-95.425
M16
G05
T0
M30
