%TF.GenerationSoftware,KiCad,Pcbnew,7.0.9*%
%TF.CreationDate,2023-12-08T01:22:57+08:00*%
%TF.ProjectId,Basic_STM32_Bluepill,42617369-635f-4535-944d-33325f426c75,rev?*%
%TF.SameCoordinates,Original*%
%TF.FileFunction,Soldermask,Top*%
%TF.FilePolarity,Negative*%
%FSLAX46Y46*%
G04 Gerber Fmt 4.6, Leading zero omitted, Abs format (unit mm)*
G04 Created by KiCad (PCBNEW 7.0.9) date 2023-12-08 01:22:57*
%MOMM*%
%LPD*%
G01*
G04 APERTURE LIST*
G04 Aperture macros list*
%AMRoundRect*
0 Rectangle with rounded corners*
0 $1 Rounding radius*
0 $2 $3 $4 $5 $6 $7 $8 $9 X,Y pos of 4 corners*
0 Add a 4 corners polygon primitive as box body*
4,1,4,$2,$3,$4,$5,$6,$7,$8,$9,$2,$3,0*
0 Add four circle primitives for the rounded corners*
1,1,$1+$1,$2,$3*
1,1,$1+$1,$4,$5*
1,1,$1+$1,$6,$7*
1,1,$1+$1,$8,$9*
0 Add four rect primitives between the rounded corners*
20,1,$1+$1,$2,$3,$4,$5,0*
20,1,$1+$1,$4,$5,$6,$7,0*
20,1,$1+$1,$6,$7,$8,$9,0*
20,1,$1+$1,$8,$9,$2,$3,0*%
G04 Aperture macros list end*
%ADD10RoundRect,0.140000X-0.140000X-0.170000X0.140000X-0.170000X0.140000X0.170000X-0.140000X0.170000X0*%
%ADD11RoundRect,0.140000X0.170000X-0.140000X0.170000X0.140000X-0.170000X0.140000X-0.170000X-0.140000X0*%
%ADD12R,1.200000X1.400000*%
%ADD13RoundRect,0.135000X0.135000X0.185000X-0.135000X0.185000X-0.135000X-0.185000X0.135000X-0.185000X0*%
%ADD14O,0.800000X0.800000*%
%ADD15R,1.300000X0.450000*%
%ADD16O,1.800000X1.150000*%
%ADD17O,2.000000X1.450000*%
%ADD18RoundRect,0.135000X-0.135000X-0.185000X0.135000X-0.185000X0.135000X0.185000X-0.135000X0.185000X0*%
%ADD19RoundRect,0.135000X0.185000X-0.135000X0.185000X0.135000X-0.185000X0.135000X-0.185000X-0.135000X0*%
%ADD20RoundRect,0.135000X-0.185000X0.135000X-0.185000X-0.135000X0.185000X-0.135000X0.185000X0.135000X0*%
%ADD21C,2.200000*%
%ADD22R,1.700000X1.700000*%
%ADD23O,1.700000X1.700000*%
%ADD24RoundRect,0.218750X0.218750X0.256250X-0.218750X0.256250X-0.218750X-0.256250X0.218750X-0.256250X0*%
%ADD25RoundRect,0.140000X0.140000X0.170000X-0.140000X0.170000X-0.140000X-0.170000X0.140000X-0.170000X0*%
%ADD26RoundRect,0.140000X-0.170000X0.140000X-0.170000X-0.140000X0.170000X-0.140000X0.170000X0.140000X0*%
%ADD27RoundRect,0.250000X0.475000X-0.250000X0.475000X0.250000X-0.475000X0.250000X-0.475000X-0.250000X0*%
%ADD28RoundRect,0.218750X0.256250X-0.218750X0.256250X0.218750X-0.256250X0.218750X-0.256250X-0.218750X0*%
%ADD29R,0.800000X1.000000*%
%ADD30C,0.900000*%
%ADD31R,1.500000X0.700000*%
%ADD32RoundRect,0.225000X-0.225000X-0.250000X0.225000X-0.250000X0.225000X0.250000X-0.225000X0.250000X0*%
%ADD33R,1.500000X2.000000*%
%ADD34R,3.800000X2.000000*%
%ADD35RoundRect,0.250000X-0.250000X-0.475000X0.250000X-0.475000X0.250000X0.475000X-0.250000X0.475000X0*%
%ADD36RoundRect,0.075000X-0.662500X-0.075000X0.662500X-0.075000X0.662500X0.075000X-0.662500X0.075000X0*%
%ADD37RoundRect,0.075000X-0.075000X-0.662500X0.075000X-0.662500X0.075000X0.662500X-0.075000X0.662500X0*%
G04 APERTURE END LIST*
D10*
%TO.C,C3*%
X150420000Y-99500000D03*
X151380000Y-99500000D03*
%TD*%
D11*
%TO.C,C4*%
X144200000Y-92580000D03*
X144200000Y-91620000D03*
%TD*%
D12*
%TO.C,Y1*%
X140920000Y-92100000D03*
X140920000Y-94300000D03*
X142620000Y-94300000D03*
X142620000Y-92100000D03*
%TD*%
D13*
%TO.C,R3*%
X153310000Y-103700000D03*
X152290000Y-103700000D03*
%TD*%
D14*
%TO.C,J3*%
X171145000Y-94200000D03*
X171145000Y-89200000D03*
D15*
X170045000Y-93000000D03*
X170045000Y-92350000D03*
X170045000Y-91700000D03*
X170045000Y-91050000D03*
X170045000Y-90400000D03*
D16*
X173895000Y-95575000D03*
D17*
X170095000Y-95425000D03*
X170095000Y-87975000D03*
D16*
X173895000Y-87825000D03*
%TD*%
D18*
%TO.C,R1*%
X173663000Y-100711500D03*
X174683000Y-100711500D03*
%TD*%
D19*
%TO.C,R4*%
X139649000Y-89827000D03*
X139649000Y-88807000D03*
%TD*%
D20*
%TO.C,R5*%
X162300000Y-90590000D03*
X162300000Y-91610000D03*
%TD*%
D10*
%TO.C,C8*%
X151008000Y-87158000D03*
X151968000Y-87158000D03*
%TD*%
D21*
%TO.C,H4*%
X137000000Y-107000000D03*
%TD*%
D11*
%TO.C,C9*%
X147800000Y-90180000D03*
X147800000Y-89220000D03*
%TD*%
D22*
%TO.C,J2*%
X154381000Y-81443000D03*
D23*
X151841000Y-81443000D03*
X149301000Y-81443000D03*
X146761000Y-81443000D03*
%TD*%
D24*
%TO.C,FB1*%
X144787500Y-96400000D03*
X143212500Y-96400000D03*
%TD*%
D25*
%TO.C,C10*%
X157380000Y-98800000D03*
X156420000Y-98800000D03*
%TD*%
D11*
%TO.C,C12*%
X146700000Y-94680000D03*
X146700000Y-93720000D03*
%TD*%
D22*
%TO.C,J4*%
X165862000Y-81443000D03*
D23*
X163322000Y-81443000D03*
X160782000Y-81443000D03*
X158242000Y-81443000D03*
%TD*%
D21*
%TO.C,H1*%
X172000000Y-107000000D03*
%TD*%
D11*
%TO.C,C11*%
X148000000Y-94680000D03*
X148000000Y-93720000D03*
%TD*%
D26*
%TO.C,C6*%
X159842000Y-90020000D03*
X159842000Y-90980000D03*
%TD*%
D27*
%TO.C,C2*%
X168200000Y-104150000D03*
X168200000Y-102250000D03*
%TD*%
D22*
%TO.C,J1*%
X147828000Y-106299000D03*
D23*
X150368000Y-106299000D03*
X152908000Y-106299000D03*
X155448000Y-106299000D03*
%TD*%
D28*
%TO.C,D1*%
X174300000Y-99187500D03*
X174300000Y-97612500D03*
%TD*%
D29*
%TO.C,SW1*%
X136280000Y-85413000D03*
X134070000Y-85413000D03*
D30*
X135170000Y-87563000D03*
X135170000Y-90563000D03*
D29*
X136280000Y-92713000D03*
X134070000Y-92713000D03*
D31*
X136930000Y-86813000D03*
X136930000Y-89813000D03*
X136930000Y-91313000D03*
%TD*%
D18*
%TO.C,R2*%
X150090000Y-103700000D03*
X151110000Y-103700000D03*
%TD*%
D32*
%TO.C,C5*%
X150625000Y-85700000D03*
X152175000Y-85700000D03*
%TD*%
D11*
%TO.C,C7*%
X144200000Y-94780000D03*
X144200000Y-93820000D03*
%TD*%
D33*
%TO.C,U1*%
X165600000Y-100557000D03*
X163300000Y-100557000D03*
D34*
X163300000Y-106857000D03*
D33*
X161000000Y-100557000D03*
%TD*%
D21*
%TO.C,H2*%
X172000000Y-81000000D03*
%TD*%
D25*
%TO.C,C13*%
X141780000Y-96500000D03*
X140820000Y-96500000D03*
%TD*%
D35*
%TO.C,C1*%
X162384000Y-97800000D03*
X164284000Y-97800000D03*
%TD*%
D36*
%TO.C,U2*%
X149837500Y-90250000D03*
X149837500Y-90750000D03*
X149837500Y-91250000D03*
X149837500Y-91750000D03*
X149837500Y-92250000D03*
X149837500Y-92750000D03*
X149837500Y-93250000D03*
X149837500Y-93750000D03*
X149837500Y-94250000D03*
X149837500Y-94750000D03*
X149837500Y-95250000D03*
X149837500Y-95750000D03*
D37*
X151250000Y-97162500D03*
X151750000Y-97162500D03*
X152250000Y-97162500D03*
X152750000Y-97162500D03*
X153250000Y-97162500D03*
X153750000Y-97162500D03*
X154250000Y-97162500D03*
X154750000Y-97162500D03*
X155250000Y-97162500D03*
X155750000Y-97162500D03*
X156250000Y-97162500D03*
X156750000Y-97162500D03*
D36*
X158162500Y-95750000D03*
X158162500Y-95250000D03*
X158162500Y-94750000D03*
X158162500Y-94250000D03*
X158162500Y-93750000D03*
X158162500Y-93250000D03*
X158162500Y-92750000D03*
X158162500Y-92250000D03*
X158162500Y-91750000D03*
X158162500Y-91250000D03*
X158162500Y-90750000D03*
X158162500Y-90250000D03*
D37*
X156750000Y-88837500D03*
X156250000Y-88837500D03*
X155750000Y-88837500D03*
X155250000Y-88837500D03*
X154750000Y-88837500D03*
X154250000Y-88837500D03*
X153750000Y-88837500D03*
X153250000Y-88837500D03*
X152750000Y-88837500D03*
X152250000Y-88837500D03*
X151750000Y-88837500D03*
X151250000Y-88837500D03*
%TD*%
D21*
%TO.C,H3*%
X137000000Y-81000000D03*
%TD*%
M02*
