%TF.GenerationSoftware,KiCad,Pcbnew,7.0.9*%
%TF.CreationDate,2023-12-08T01:22:57+08:00*%
%TF.ProjectId,Basic_STM32_Bluepill,42617369-635f-4535-944d-33325f426c75,rev?*%
%TF.SameCoordinates,Original*%
%TF.FileFunction,Legend,Top*%
%TF.FilePolarity,Positive*%
%FSLAX46Y46*%
G04 Gerber Fmt 4.6, Leading zero omitted, Abs format (unit mm)*
G04 Created by KiCad (PCBNEW 7.0.9) date 2023-12-08 01:22:57*
%MOMM*%
%LPD*%
G01*
G04 APERTURE LIST*
%ADD10C,0.160000*%
%ADD11C,0.200000*%
%ADD12C,0.150000*%
%ADD13C,0.120000*%
G04 APERTURE END LIST*
D10*
X133885714Y-94940250D02*
X134212714Y-94605250D01*
X133885714Y-94940250D02*
X133558714Y-94605250D01*
X133885714Y-93924250D02*
X133885714Y-94940250D01*
D11*
X159419673Y-79277100D02*
X159598244Y-79336623D01*
X159598244Y-79336623D02*
X159895863Y-79336623D01*
X159895863Y-79336623D02*
X160014911Y-79277100D01*
X160014911Y-79277100D02*
X160074435Y-79217576D01*
X160074435Y-79217576D02*
X160133958Y-79098528D01*
X160133958Y-79098528D02*
X160133958Y-78979480D01*
X160133958Y-78979480D02*
X160074435Y-78860433D01*
X160074435Y-78860433D02*
X160014911Y-78800909D01*
X160014911Y-78800909D02*
X159895863Y-78741385D01*
X159895863Y-78741385D02*
X159657768Y-78681861D01*
X159657768Y-78681861D02*
X159538720Y-78622338D01*
X159538720Y-78622338D02*
X159479197Y-78562814D01*
X159479197Y-78562814D02*
X159419673Y-78443766D01*
X159419673Y-78443766D02*
X159419673Y-78324719D01*
X159419673Y-78324719D02*
X159479197Y-78205671D01*
X159479197Y-78205671D02*
X159538720Y-78146147D01*
X159538720Y-78146147D02*
X159657768Y-78086623D01*
X159657768Y-78086623D02*
X159955387Y-78086623D01*
X159955387Y-78086623D02*
X160133958Y-78146147D01*
X160550625Y-78086623D02*
X160848244Y-79336623D01*
X160848244Y-79336623D02*
X161086339Y-78443766D01*
X161086339Y-78443766D02*
X161324434Y-79336623D01*
X161324434Y-79336623D02*
X161622054Y-78086623D01*
X162098244Y-79336623D02*
X162098244Y-78086623D01*
X162098244Y-78086623D02*
X162395863Y-78086623D01*
X162395863Y-78086623D02*
X162574434Y-78146147D01*
X162574434Y-78146147D02*
X162693482Y-78265195D01*
X162693482Y-78265195D02*
X162753005Y-78384242D01*
X162753005Y-78384242D02*
X162812529Y-78622338D01*
X162812529Y-78622338D02*
X162812529Y-78800909D01*
X162812529Y-78800909D02*
X162753005Y-79039004D01*
X162753005Y-79039004D02*
X162693482Y-79158052D01*
X162693482Y-79158052D02*
X162574434Y-79277100D01*
X162574434Y-79277100D02*
X162395863Y-79336623D01*
X162395863Y-79336623D02*
X162098244Y-79336623D01*
X150029197Y-109886623D02*
X150029197Y-108636623D01*
X150564911Y-108755671D02*
X150624435Y-108696147D01*
X150624435Y-108696147D02*
X150743482Y-108636623D01*
X150743482Y-108636623D02*
X151041101Y-108636623D01*
X151041101Y-108636623D02*
X151160149Y-108696147D01*
X151160149Y-108696147D02*
X151219673Y-108755671D01*
X151219673Y-108755671D02*
X151279196Y-108874719D01*
X151279196Y-108874719D02*
X151279196Y-108993766D01*
X151279196Y-108993766D02*
X151219673Y-109172338D01*
X151219673Y-109172338D02*
X150505387Y-109886623D01*
X150505387Y-109886623D02*
X151279196Y-109886623D01*
X152529196Y-109767576D02*
X152469672Y-109827100D01*
X152469672Y-109827100D02*
X152291101Y-109886623D01*
X152291101Y-109886623D02*
X152172053Y-109886623D01*
X152172053Y-109886623D02*
X151993482Y-109827100D01*
X151993482Y-109827100D02*
X151874434Y-109708052D01*
X151874434Y-109708052D02*
X151814911Y-109589004D01*
X151814911Y-109589004D02*
X151755387Y-109350909D01*
X151755387Y-109350909D02*
X151755387Y-109172338D01*
X151755387Y-109172338D02*
X151814911Y-108934242D01*
X151814911Y-108934242D02*
X151874434Y-108815195D01*
X151874434Y-108815195D02*
X151993482Y-108696147D01*
X151993482Y-108696147D02*
X152172053Y-108636623D01*
X152172053Y-108636623D02*
X152291101Y-108636623D01*
X152291101Y-108636623D02*
X152469672Y-108696147D01*
X152469672Y-108696147D02*
X152529196Y-108755671D01*
X153005387Y-108755671D02*
X153064911Y-108696147D01*
X153064911Y-108696147D02*
X153183958Y-108636623D01*
X153183958Y-108636623D02*
X153481577Y-108636623D01*
X153481577Y-108636623D02*
X153600625Y-108696147D01*
X153600625Y-108696147D02*
X153660149Y-108755671D01*
X153660149Y-108755671D02*
X153719672Y-108874719D01*
X153719672Y-108874719D02*
X153719672Y-108993766D01*
X153719672Y-108993766D02*
X153660149Y-109172338D01*
X153660149Y-109172338D02*
X152945863Y-109886623D01*
X152945863Y-109886623D02*
X153719672Y-109886623D01*
X135045863Y-94381861D02*
X135224435Y-94441385D01*
X135224435Y-94441385D02*
X135283958Y-94500909D01*
X135283958Y-94500909D02*
X135343482Y-94619957D01*
X135343482Y-94619957D02*
X135343482Y-94798528D01*
X135343482Y-94798528D02*
X135283958Y-94917576D01*
X135283958Y-94917576D02*
X135224435Y-94977100D01*
X135224435Y-94977100D02*
X135105387Y-95036623D01*
X135105387Y-95036623D02*
X134629197Y-95036623D01*
X134629197Y-95036623D02*
X134629197Y-93786623D01*
X134629197Y-93786623D02*
X135045863Y-93786623D01*
X135045863Y-93786623D02*
X135164911Y-93846147D01*
X135164911Y-93846147D02*
X135224435Y-93905671D01*
X135224435Y-93905671D02*
X135283958Y-94024719D01*
X135283958Y-94024719D02*
X135283958Y-94143766D01*
X135283958Y-94143766D02*
X135224435Y-94262814D01*
X135224435Y-94262814D02*
X135164911Y-94322338D01*
X135164911Y-94322338D02*
X135045863Y-94381861D01*
X135045863Y-94381861D02*
X134629197Y-94381861D01*
X136117292Y-93786623D02*
X136355387Y-93786623D01*
X136355387Y-93786623D02*
X136474435Y-93846147D01*
X136474435Y-93846147D02*
X136593482Y-93965195D01*
X136593482Y-93965195D02*
X136653006Y-94203290D01*
X136653006Y-94203290D02*
X136653006Y-94619957D01*
X136653006Y-94619957D02*
X136593482Y-94858052D01*
X136593482Y-94858052D02*
X136474435Y-94977100D01*
X136474435Y-94977100D02*
X136355387Y-95036623D01*
X136355387Y-95036623D02*
X136117292Y-95036623D01*
X136117292Y-95036623D02*
X135998244Y-94977100D01*
X135998244Y-94977100D02*
X135879197Y-94858052D01*
X135879197Y-94858052D02*
X135819673Y-94619957D01*
X135819673Y-94619957D02*
X135819673Y-94203290D01*
X135819673Y-94203290D02*
X135879197Y-93965195D01*
X135879197Y-93965195D02*
X135998244Y-93846147D01*
X135998244Y-93846147D02*
X136117292Y-93786623D01*
X137426816Y-93786623D02*
X137664911Y-93786623D01*
X137664911Y-93786623D02*
X137783959Y-93846147D01*
X137783959Y-93846147D02*
X137903006Y-93965195D01*
X137903006Y-93965195D02*
X137962530Y-94203290D01*
X137962530Y-94203290D02*
X137962530Y-94619957D01*
X137962530Y-94619957D02*
X137903006Y-94858052D01*
X137903006Y-94858052D02*
X137783959Y-94977100D01*
X137783959Y-94977100D02*
X137664911Y-95036623D01*
X137664911Y-95036623D02*
X137426816Y-95036623D01*
X137426816Y-95036623D02*
X137307768Y-94977100D01*
X137307768Y-94977100D02*
X137188721Y-94858052D01*
X137188721Y-94858052D02*
X137129197Y-94619957D01*
X137129197Y-94619957D02*
X137129197Y-94203290D01*
X137129197Y-94203290D02*
X137188721Y-93965195D01*
X137188721Y-93965195D02*
X137307768Y-93846147D01*
X137307768Y-93846147D02*
X137426816Y-93786623D01*
X138319673Y-93786623D02*
X139033959Y-93786623D01*
X138676816Y-95036623D02*
X138676816Y-93786623D01*
X146979197Y-78036623D02*
X146979197Y-79048528D01*
X146979197Y-79048528D02*
X147038720Y-79167576D01*
X147038720Y-79167576D02*
X147098244Y-79227100D01*
X147098244Y-79227100D02*
X147217292Y-79286623D01*
X147217292Y-79286623D02*
X147455387Y-79286623D01*
X147455387Y-79286623D02*
X147574435Y-79227100D01*
X147574435Y-79227100D02*
X147633958Y-79167576D01*
X147633958Y-79167576D02*
X147693482Y-79048528D01*
X147693482Y-79048528D02*
X147693482Y-78036623D01*
X148229197Y-79227100D02*
X148407768Y-79286623D01*
X148407768Y-79286623D02*
X148705387Y-79286623D01*
X148705387Y-79286623D02*
X148824435Y-79227100D01*
X148824435Y-79227100D02*
X148883959Y-79167576D01*
X148883959Y-79167576D02*
X148943482Y-79048528D01*
X148943482Y-79048528D02*
X148943482Y-78929480D01*
X148943482Y-78929480D02*
X148883959Y-78810433D01*
X148883959Y-78810433D02*
X148824435Y-78750909D01*
X148824435Y-78750909D02*
X148705387Y-78691385D01*
X148705387Y-78691385D02*
X148467292Y-78631861D01*
X148467292Y-78631861D02*
X148348244Y-78572338D01*
X148348244Y-78572338D02*
X148288721Y-78512814D01*
X148288721Y-78512814D02*
X148229197Y-78393766D01*
X148229197Y-78393766D02*
X148229197Y-78274719D01*
X148229197Y-78274719D02*
X148288721Y-78155671D01*
X148288721Y-78155671D02*
X148348244Y-78096147D01*
X148348244Y-78096147D02*
X148467292Y-78036623D01*
X148467292Y-78036623D02*
X148764911Y-78036623D01*
X148764911Y-78036623D02*
X148943482Y-78096147D01*
X149419673Y-78929480D02*
X150014911Y-78929480D01*
X149300625Y-79286623D02*
X149717292Y-78036623D01*
X149717292Y-78036623D02*
X150133958Y-79286623D01*
X151264911Y-79286623D02*
X150848245Y-78691385D01*
X150550626Y-79286623D02*
X150550626Y-78036623D01*
X150550626Y-78036623D02*
X151026816Y-78036623D01*
X151026816Y-78036623D02*
X151145864Y-78096147D01*
X151145864Y-78096147D02*
X151205387Y-78155671D01*
X151205387Y-78155671D02*
X151264911Y-78274719D01*
X151264911Y-78274719D02*
X151264911Y-78453290D01*
X151264911Y-78453290D02*
X151205387Y-78572338D01*
X151205387Y-78572338D02*
X151145864Y-78631861D01*
X151145864Y-78631861D02*
X151026816Y-78691385D01*
X151026816Y-78691385D02*
X150550626Y-78691385D01*
X151622054Y-78036623D02*
X152336340Y-78036623D01*
X151979197Y-79286623D02*
X151979197Y-78036623D01*
D12*
X152642143Y-99986580D02*
X152594524Y-100034200D01*
X152594524Y-100034200D02*
X152451667Y-100081819D01*
X152451667Y-100081819D02*
X152356429Y-100081819D01*
X152356429Y-100081819D02*
X152213572Y-100034200D01*
X152213572Y-100034200D02*
X152118334Y-99938961D01*
X152118334Y-99938961D02*
X152070715Y-99843723D01*
X152070715Y-99843723D02*
X152023096Y-99653247D01*
X152023096Y-99653247D02*
X152023096Y-99510390D01*
X152023096Y-99510390D02*
X152070715Y-99319914D01*
X152070715Y-99319914D02*
X152118334Y-99224676D01*
X152118334Y-99224676D02*
X152213572Y-99129438D01*
X152213572Y-99129438D02*
X152356429Y-99081819D01*
X152356429Y-99081819D02*
X152451667Y-99081819D01*
X152451667Y-99081819D02*
X152594524Y-99129438D01*
X152594524Y-99129438D02*
X152642143Y-99177057D01*
X152975477Y-99081819D02*
X153594524Y-99081819D01*
X153594524Y-99081819D02*
X153261191Y-99462771D01*
X153261191Y-99462771D02*
X153404048Y-99462771D01*
X153404048Y-99462771D02*
X153499286Y-99510390D01*
X153499286Y-99510390D02*
X153546905Y-99558009D01*
X153546905Y-99558009D02*
X153594524Y-99653247D01*
X153594524Y-99653247D02*
X153594524Y-99891342D01*
X153594524Y-99891342D02*
X153546905Y-99986580D01*
X153546905Y-99986580D02*
X153499286Y-100034200D01*
X153499286Y-100034200D02*
X153404048Y-100081819D01*
X153404048Y-100081819D02*
X153118334Y-100081819D01*
X153118334Y-100081819D02*
X153023096Y-100034200D01*
X153023096Y-100034200D02*
X152975477Y-99986580D01*
X144609580Y-90366666D02*
X144657200Y-90414285D01*
X144657200Y-90414285D02*
X144704819Y-90557142D01*
X144704819Y-90557142D02*
X144704819Y-90652380D01*
X144704819Y-90652380D02*
X144657200Y-90795237D01*
X144657200Y-90795237D02*
X144561961Y-90890475D01*
X144561961Y-90890475D02*
X144466723Y-90938094D01*
X144466723Y-90938094D02*
X144276247Y-90985713D01*
X144276247Y-90985713D02*
X144133390Y-90985713D01*
X144133390Y-90985713D02*
X143942914Y-90938094D01*
X143942914Y-90938094D02*
X143847676Y-90890475D01*
X143847676Y-90890475D02*
X143752438Y-90795237D01*
X143752438Y-90795237D02*
X143704819Y-90652380D01*
X143704819Y-90652380D02*
X143704819Y-90557142D01*
X143704819Y-90557142D02*
X143752438Y-90414285D01*
X143752438Y-90414285D02*
X143800057Y-90366666D01*
X144038152Y-89509523D02*
X144704819Y-89509523D01*
X143657200Y-89747618D02*
X144371485Y-89985713D01*
X144371485Y-89985713D02*
X144371485Y-89366666D01*
X138623809Y-91778628D02*
X138623809Y-92254819D01*
X138290476Y-91254819D02*
X138623809Y-91778628D01*
X138623809Y-91778628D02*
X138957142Y-91254819D01*
X139814285Y-92254819D02*
X139242857Y-92254819D01*
X139528571Y-92254819D02*
X139528571Y-91254819D01*
X139528571Y-91254819D02*
X139433333Y-91397676D01*
X139433333Y-91397676D02*
X139338095Y-91492914D01*
X139338095Y-91492914D02*
X139242857Y-91540533D01*
X154833333Y-104154819D02*
X154500000Y-103678628D01*
X154261905Y-104154819D02*
X154261905Y-103154819D01*
X154261905Y-103154819D02*
X154642857Y-103154819D01*
X154642857Y-103154819D02*
X154738095Y-103202438D01*
X154738095Y-103202438D02*
X154785714Y-103250057D01*
X154785714Y-103250057D02*
X154833333Y-103345295D01*
X154833333Y-103345295D02*
X154833333Y-103488152D01*
X154833333Y-103488152D02*
X154785714Y-103583390D01*
X154785714Y-103583390D02*
X154738095Y-103631009D01*
X154738095Y-103631009D02*
X154642857Y-103678628D01*
X154642857Y-103678628D02*
X154261905Y-103678628D01*
X155166667Y-103154819D02*
X155785714Y-103154819D01*
X155785714Y-103154819D02*
X155452381Y-103535771D01*
X155452381Y-103535771D02*
X155595238Y-103535771D01*
X155595238Y-103535771D02*
X155690476Y-103583390D01*
X155690476Y-103583390D02*
X155738095Y-103631009D01*
X155738095Y-103631009D02*
X155785714Y-103726247D01*
X155785714Y-103726247D02*
X155785714Y-103964342D01*
X155785714Y-103964342D02*
X155738095Y-104059580D01*
X155738095Y-104059580D02*
X155690476Y-104107200D01*
X155690476Y-104107200D02*
X155595238Y-104154819D01*
X155595238Y-104154819D02*
X155309524Y-104154819D01*
X155309524Y-104154819D02*
X155214286Y-104107200D01*
X155214286Y-104107200D02*
X155166667Y-104059580D01*
X168966666Y-85429819D02*
X168966666Y-86144104D01*
X168966666Y-86144104D02*
X168919047Y-86286961D01*
X168919047Y-86286961D02*
X168823809Y-86382200D01*
X168823809Y-86382200D02*
X168680952Y-86429819D01*
X168680952Y-86429819D02*
X168585714Y-86429819D01*
X169347619Y-85429819D02*
X169966666Y-85429819D01*
X169966666Y-85429819D02*
X169633333Y-85810771D01*
X169633333Y-85810771D02*
X169776190Y-85810771D01*
X169776190Y-85810771D02*
X169871428Y-85858390D01*
X169871428Y-85858390D02*
X169919047Y-85906009D01*
X169919047Y-85906009D02*
X169966666Y-86001247D01*
X169966666Y-86001247D02*
X169966666Y-86239342D01*
X169966666Y-86239342D02*
X169919047Y-86334580D01*
X169919047Y-86334580D02*
X169871428Y-86382200D01*
X169871428Y-86382200D02*
X169776190Y-86429819D01*
X169776190Y-86429819D02*
X169490476Y-86429819D01*
X169490476Y-86429819D02*
X169395238Y-86382200D01*
X169395238Y-86382200D02*
X169347619Y-86334580D01*
X172033333Y-101154819D02*
X171700000Y-100678628D01*
X171461905Y-101154819D02*
X171461905Y-100154819D01*
X171461905Y-100154819D02*
X171842857Y-100154819D01*
X171842857Y-100154819D02*
X171938095Y-100202438D01*
X171938095Y-100202438D02*
X171985714Y-100250057D01*
X171985714Y-100250057D02*
X172033333Y-100345295D01*
X172033333Y-100345295D02*
X172033333Y-100488152D01*
X172033333Y-100488152D02*
X171985714Y-100583390D01*
X171985714Y-100583390D02*
X171938095Y-100631009D01*
X171938095Y-100631009D02*
X171842857Y-100678628D01*
X171842857Y-100678628D02*
X171461905Y-100678628D01*
X172985714Y-101154819D02*
X172414286Y-101154819D01*
X172700000Y-101154819D02*
X172700000Y-100154819D01*
X172700000Y-100154819D02*
X172604762Y-100297676D01*
X172604762Y-100297676D02*
X172509524Y-100392914D01*
X172509524Y-100392914D02*
X172414286Y-100440533D01*
X141424819Y-89320666D02*
X140948628Y-89653999D01*
X141424819Y-89892094D02*
X140424819Y-89892094D01*
X140424819Y-89892094D02*
X140424819Y-89511142D01*
X140424819Y-89511142D02*
X140472438Y-89415904D01*
X140472438Y-89415904D02*
X140520057Y-89368285D01*
X140520057Y-89368285D02*
X140615295Y-89320666D01*
X140615295Y-89320666D02*
X140758152Y-89320666D01*
X140758152Y-89320666D02*
X140853390Y-89368285D01*
X140853390Y-89368285D02*
X140901009Y-89415904D01*
X140901009Y-89415904D02*
X140948628Y-89511142D01*
X140948628Y-89511142D02*
X140948628Y-89892094D01*
X140758152Y-88463523D02*
X141424819Y-88463523D01*
X140377200Y-88701618D02*
X141091485Y-88939713D01*
X141091485Y-88939713D02*
X141091485Y-88320666D01*
X162754819Y-89234666D02*
X162278628Y-89567999D01*
X162754819Y-89806094D02*
X161754819Y-89806094D01*
X161754819Y-89806094D02*
X161754819Y-89425142D01*
X161754819Y-89425142D02*
X161802438Y-89329904D01*
X161802438Y-89329904D02*
X161850057Y-89282285D01*
X161850057Y-89282285D02*
X161945295Y-89234666D01*
X161945295Y-89234666D02*
X162088152Y-89234666D01*
X162088152Y-89234666D02*
X162183390Y-89282285D01*
X162183390Y-89282285D02*
X162231009Y-89329904D01*
X162231009Y-89329904D02*
X162278628Y-89425142D01*
X162278628Y-89425142D02*
X162278628Y-89806094D01*
X161754819Y-88329904D02*
X161754819Y-88806094D01*
X161754819Y-88806094D02*
X162231009Y-88853713D01*
X162231009Y-88853713D02*
X162183390Y-88806094D01*
X162183390Y-88806094D02*
X162135771Y-88710856D01*
X162135771Y-88710856D02*
X162135771Y-88472761D01*
X162135771Y-88472761D02*
X162183390Y-88377523D01*
X162183390Y-88377523D02*
X162231009Y-88329904D01*
X162231009Y-88329904D02*
X162326247Y-88282285D01*
X162326247Y-88282285D02*
X162564342Y-88282285D01*
X162564342Y-88282285D02*
X162659580Y-88329904D01*
X162659580Y-88329904D02*
X162707200Y-88377523D01*
X162707200Y-88377523D02*
X162754819Y-88472761D01*
X162754819Y-88472761D02*
X162754819Y-88710856D01*
X162754819Y-88710856D02*
X162707200Y-88806094D01*
X162707200Y-88806094D02*
X162659580Y-88853713D01*
X153433333Y-87559580D02*
X153385714Y-87607200D01*
X153385714Y-87607200D02*
X153242857Y-87654819D01*
X153242857Y-87654819D02*
X153147619Y-87654819D01*
X153147619Y-87654819D02*
X153004762Y-87607200D01*
X153004762Y-87607200D02*
X152909524Y-87511961D01*
X152909524Y-87511961D02*
X152861905Y-87416723D01*
X152861905Y-87416723D02*
X152814286Y-87226247D01*
X152814286Y-87226247D02*
X152814286Y-87083390D01*
X152814286Y-87083390D02*
X152861905Y-86892914D01*
X152861905Y-86892914D02*
X152909524Y-86797676D01*
X152909524Y-86797676D02*
X153004762Y-86702438D01*
X153004762Y-86702438D02*
X153147619Y-86654819D01*
X153147619Y-86654819D02*
X153242857Y-86654819D01*
X153242857Y-86654819D02*
X153385714Y-86702438D01*
X153385714Y-86702438D02*
X153433333Y-86750057D01*
X154004762Y-87083390D02*
X153909524Y-87035771D01*
X153909524Y-87035771D02*
X153861905Y-86988152D01*
X153861905Y-86988152D02*
X153814286Y-86892914D01*
X153814286Y-86892914D02*
X153814286Y-86845295D01*
X153814286Y-86845295D02*
X153861905Y-86750057D01*
X153861905Y-86750057D02*
X153909524Y-86702438D01*
X153909524Y-86702438D02*
X154004762Y-86654819D01*
X154004762Y-86654819D02*
X154195238Y-86654819D01*
X154195238Y-86654819D02*
X154290476Y-86702438D01*
X154290476Y-86702438D02*
X154338095Y-86750057D01*
X154338095Y-86750057D02*
X154385714Y-86845295D01*
X154385714Y-86845295D02*
X154385714Y-86892914D01*
X154385714Y-86892914D02*
X154338095Y-86988152D01*
X154338095Y-86988152D02*
X154290476Y-87035771D01*
X154290476Y-87035771D02*
X154195238Y-87083390D01*
X154195238Y-87083390D02*
X154004762Y-87083390D01*
X154004762Y-87083390D02*
X153909524Y-87131009D01*
X153909524Y-87131009D02*
X153861905Y-87178628D01*
X153861905Y-87178628D02*
X153814286Y-87273866D01*
X153814286Y-87273866D02*
X153814286Y-87464342D01*
X153814286Y-87464342D02*
X153861905Y-87559580D01*
X153861905Y-87559580D02*
X153909524Y-87607200D01*
X153909524Y-87607200D02*
X154004762Y-87654819D01*
X154004762Y-87654819D02*
X154195238Y-87654819D01*
X154195238Y-87654819D02*
X154290476Y-87607200D01*
X154290476Y-87607200D02*
X154338095Y-87559580D01*
X154338095Y-87559580D02*
X154385714Y-87464342D01*
X154385714Y-87464342D02*
X154385714Y-87273866D01*
X154385714Y-87273866D02*
X154338095Y-87178628D01*
X154338095Y-87178628D02*
X154290476Y-87131009D01*
X154290476Y-87131009D02*
X154195238Y-87083390D01*
X148159580Y-87908266D02*
X148207200Y-87955885D01*
X148207200Y-87955885D02*
X148254819Y-88098742D01*
X148254819Y-88098742D02*
X148254819Y-88193980D01*
X148254819Y-88193980D02*
X148207200Y-88336837D01*
X148207200Y-88336837D02*
X148111961Y-88432075D01*
X148111961Y-88432075D02*
X148016723Y-88479694D01*
X148016723Y-88479694D02*
X147826247Y-88527313D01*
X147826247Y-88527313D02*
X147683390Y-88527313D01*
X147683390Y-88527313D02*
X147492914Y-88479694D01*
X147492914Y-88479694D02*
X147397676Y-88432075D01*
X147397676Y-88432075D02*
X147302438Y-88336837D01*
X147302438Y-88336837D02*
X147254819Y-88193980D01*
X147254819Y-88193980D02*
X147254819Y-88098742D01*
X147254819Y-88098742D02*
X147302438Y-87955885D01*
X147302438Y-87955885D02*
X147350057Y-87908266D01*
X148254819Y-87432075D02*
X148254819Y-87241599D01*
X148254819Y-87241599D02*
X148207200Y-87146361D01*
X148207200Y-87146361D02*
X148159580Y-87098742D01*
X148159580Y-87098742D02*
X148016723Y-87003504D01*
X148016723Y-87003504D02*
X147826247Y-86955885D01*
X147826247Y-86955885D02*
X147445295Y-86955885D01*
X147445295Y-86955885D02*
X147350057Y-87003504D01*
X147350057Y-87003504D02*
X147302438Y-87051123D01*
X147302438Y-87051123D02*
X147254819Y-87146361D01*
X147254819Y-87146361D02*
X147254819Y-87336837D01*
X147254819Y-87336837D02*
X147302438Y-87432075D01*
X147302438Y-87432075D02*
X147350057Y-87479694D01*
X147350057Y-87479694D02*
X147445295Y-87527313D01*
X147445295Y-87527313D02*
X147683390Y-87527313D01*
X147683390Y-87527313D02*
X147778628Y-87479694D01*
X147778628Y-87479694D02*
X147826247Y-87432075D01*
X147826247Y-87432075D02*
X147873866Y-87336837D01*
X147873866Y-87336837D02*
X147873866Y-87146361D01*
X147873866Y-87146361D02*
X147826247Y-87051123D01*
X147826247Y-87051123D02*
X147778628Y-87003504D01*
X147778628Y-87003504D02*
X147683390Y-86955885D01*
X143266666Y-97831009D02*
X142933333Y-97831009D01*
X142933333Y-98354819D02*
X142933333Y-97354819D01*
X142933333Y-97354819D02*
X143409523Y-97354819D01*
X144123809Y-97831009D02*
X144266666Y-97878628D01*
X144266666Y-97878628D02*
X144314285Y-97926247D01*
X144314285Y-97926247D02*
X144361904Y-98021485D01*
X144361904Y-98021485D02*
X144361904Y-98164342D01*
X144361904Y-98164342D02*
X144314285Y-98259580D01*
X144314285Y-98259580D02*
X144266666Y-98307200D01*
X144266666Y-98307200D02*
X144171428Y-98354819D01*
X144171428Y-98354819D02*
X143790476Y-98354819D01*
X143790476Y-98354819D02*
X143790476Y-97354819D01*
X143790476Y-97354819D02*
X144123809Y-97354819D01*
X144123809Y-97354819D02*
X144219047Y-97402438D01*
X144219047Y-97402438D02*
X144266666Y-97450057D01*
X144266666Y-97450057D02*
X144314285Y-97545295D01*
X144314285Y-97545295D02*
X144314285Y-97640533D01*
X144314285Y-97640533D02*
X144266666Y-97735771D01*
X144266666Y-97735771D02*
X144219047Y-97783390D01*
X144219047Y-97783390D02*
X144123809Y-97831009D01*
X144123809Y-97831009D02*
X143790476Y-97831009D01*
X145314285Y-98354819D02*
X144742857Y-98354819D01*
X145028571Y-98354819D02*
X145028571Y-97354819D01*
X145028571Y-97354819D02*
X144933333Y-97497676D01*
X144933333Y-97497676D02*
X144838095Y-97592914D01*
X144838095Y-97592914D02*
X144742857Y-97640533D01*
X158657142Y-99059580D02*
X158609523Y-99107200D01*
X158609523Y-99107200D02*
X158466666Y-99154819D01*
X158466666Y-99154819D02*
X158371428Y-99154819D01*
X158371428Y-99154819D02*
X158228571Y-99107200D01*
X158228571Y-99107200D02*
X158133333Y-99011961D01*
X158133333Y-99011961D02*
X158085714Y-98916723D01*
X158085714Y-98916723D02*
X158038095Y-98726247D01*
X158038095Y-98726247D02*
X158038095Y-98583390D01*
X158038095Y-98583390D02*
X158085714Y-98392914D01*
X158085714Y-98392914D02*
X158133333Y-98297676D01*
X158133333Y-98297676D02*
X158228571Y-98202438D01*
X158228571Y-98202438D02*
X158371428Y-98154819D01*
X158371428Y-98154819D02*
X158466666Y-98154819D01*
X158466666Y-98154819D02*
X158609523Y-98202438D01*
X158609523Y-98202438D02*
X158657142Y-98250057D01*
X159609523Y-99154819D02*
X159038095Y-99154819D01*
X159323809Y-99154819D02*
X159323809Y-98154819D01*
X159323809Y-98154819D02*
X159228571Y-98297676D01*
X159228571Y-98297676D02*
X159133333Y-98392914D01*
X159133333Y-98392914D02*
X159038095Y-98440533D01*
X160228571Y-98154819D02*
X160323809Y-98154819D01*
X160323809Y-98154819D02*
X160419047Y-98202438D01*
X160419047Y-98202438D02*
X160466666Y-98250057D01*
X160466666Y-98250057D02*
X160514285Y-98345295D01*
X160514285Y-98345295D02*
X160561904Y-98535771D01*
X160561904Y-98535771D02*
X160561904Y-98773866D01*
X160561904Y-98773866D02*
X160514285Y-98964342D01*
X160514285Y-98964342D02*
X160466666Y-99059580D01*
X160466666Y-99059580D02*
X160419047Y-99107200D01*
X160419047Y-99107200D02*
X160323809Y-99154819D01*
X160323809Y-99154819D02*
X160228571Y-99154819D01*
X160228571Y-99154819D02*
X160133333Y-99107200D01*
X160133333Y-99107200D02*
X160085714Y-99059580D01*
X160085714Y-99059580D02*
X160038095Y-98964342D01*
X160038095Y-98964342D02*
X159990476Y-98773866D01*
X159990476Y-98773866D02*
X159990476Y-98535771D01*
X159990476Y-98535771D02*
X160038095Y-98345295D01*
X160038095Y-98345295D02*
X160085714Y-98250057D01*
X160085714Y-98250057D02*
X160133333Y-98202438D01*
X160133333Y-98202438D02*
X160228571Y-98154819D01*
X147059580Y-97227857D02*
X147107200Y-97275476D01*
X147107200Y-97275476D02*
X147154819Y-97418333D01*
X147154819Y-97418333D02*
X147154819Y-97513571D01*
X147154819Y-97513571D02*
X147107200Y-97656428D01*
X147107200Y-97656428D02*
X147011961Y-97751666D01*
X147011961Y-97751666D02*
X146916723Y-97799285D01*
X146916723Y-97799285D02*
X146726247Y-97846904D01*
X146726247Y-97846904D02*
X146583390Y-97846904D01*
X146583390Y-97846904D02*
X146392914Y-97799285D01*
X146392914Y-97799285D02*
X146297676Y-97751666D01*
X146297676Y-97751666D02*
X146202438Y-97656428D01*
X146202438Y-97656428D02*
X146154819Y-97513571D01*
X146154819Y-97513571D02*
X146154819Y-97418333D01*
X146154819Y-97418333D02*
X146202438Y-97275476D01*
X146202438Y-97275476D02*
X146250057Y-97227857D01*
X147154819Y-96275476D02*
X147154819Y-96846904D01*
X147154819Y-96561190D02*
X146154819Y-96561190D01*
X146154819Y-96561190D02*
X146297676Y-96656428D01*
X146297676Y-96656428D02*
X146392914Y-96751666D01*
X146392914Y-96751666D02*
X146440533Y-96846904D01*
X146250057Y-95894523D02*
X146202438Y-95846904D01*
X146202438Y-95846904D02*
X146154819Y-95751666D01*
X146154819Y-95751666D02*
X146154819Y-95513571D01*
X146154819Y-95513571D02*
X146202438Y-95418333D01*
X146202438Y-95418333D02*
X146250057Y-95370714D01*
X146250057Y-95370714D02*
X146345295Y-95323095D01*
X146345295Y-95323095D02*
X146440533Y-95323095D01*
X146440533Y-95323095D02*
X146583390Y-95370714D01*
X146583390Y-95370714D02*
X147154819Y-95942142D01*
X147154819Y-95942142D02*
X147154819Y-95323095D01*
X148359580Y-97227857D02*
X148407200Y-97275476D01*
X148407200Y-97275476D02*
X148454819Y-97418333D01*
X148454819Y-97418333D02*
X148454819Y-97513571D01*
X148454819Y-97513571D02*
X148407200Y-97656428D01*
X148407200Y-97656428D02*
X148311961Y-97751666D01*
X148311961Y-97751666D02*
X148216723Y-97799285D01*
X148216723Y-97799285D02*
X148026247Y-97846904D01*
X148026247Y-97846904D02*
X147883390Y-97846904D01*
X147883390Y-97846904D02*
X147692914Y-97799285D01*
X147692914Y-97799285D02*
X147597676Y-97751666D01*
X147597676Y-97751666D02*
X147502438Y-97656428D01*
X147502438Y-97656428D02*
X147454819Y-97513571D01*
X147454819Y-97513571D02*
X147454819Y-97418333D01*
X147454819Y-97418333D02*
X147502438Y-97275476D01*
X147502438Y-97275476D02*
X147550057Y-97227857D01*
X148454819Y-96275476D02*
X148454819Y-96846904D01*
X148454819Y-96561190D02*
X147454819Y-96561190D01*
X147454819Y-96561190D02*
X147597676Y-96656428D01*
X147597676Y-96656428D02*
X147692914Y-96751666D01*
X147692914Y-96751666D02*
X147740533Y-96846904D01*
X148454819Y-95323095D02*
X148454819Y-95894523D01*
X148454819Y-95608809D02*
X147454819Y-95608809D01*
X147454819Y-95608809D02*
X147597676Y-95704047D01*
X147597676Y-95704047D02*
X147692914Y-95799285D01*
X147692914Y-95799285D02*
X147740533Y-95894523D01*
X160201580Y-88706666D02*
X160249200Y-88754285D01*
X160249200Y-88754285D02*
X160296819Y-88897142D01*
X160296819Y-88897142D02*
X160296819Y-88992380D01*
X160296819Y-88992380D02*
X160249200Y-89135237D01*
X160249200Y-89135237D02*
X160153961Y-89230475D01*
X160153961Y-89230475D02*
X160058723Y-89278094D01*
X160058723Y-89278094D02*
X159868247Y-89325713D01*
X159868247Y-89325713D02*
X159725390Y-89325713D01*
X159725390Y-89325713D02*
X159534914Y-89278094D01*
X159534914Y-89278094D02*
X159439676Y-89230475D01*
X159439676Y-89230475D02*
X159344438Y-89135237D01*
X159344438Y-89135237D02*
X159296819Y-88992380D01*
X159296819Y-88992380D02*
X159296819Y-88897142D01*
X159296819Y-88897142D02*
X159344438Y-88754285D01*
X159344438Y-88754285D02*
X159392057Y-88706666D01*
X159296819Y-87849523D02*
X159296819Y-88039999D01*
X159296819Y-88039999D02*
X159344438Y-88135237D01*
X159344438Y-88135237D02*
X159392057Y-88182856D01*
X159392057Y-88182856D02*
X159534914Y-88278094D01*
X159534914Y-88278094D02*
X159725390Y-88325713D01*
X159725390Y-88325713D02*
X160106342Y-88325713D01*
X160106342Y-88325713D02*
X160201580Y-88278094D01*
X160201580Y-88278094D02*
X160249200Y-88230475D01*
X160249200Y-88230475D02*
X160296819Y-88135237D01*
X160296819Y-88135237D02*
X160296819Y-87944761D01*
X160296819Y-87944761D02*
X160249200Y-87849523D01*
X160249200Y-87849523D02*
X160201580Y-87801904D01*
X160201580Y-87801904D02*
X160106342Y-87754285D01*
X160106342Y-87754285D02*
X159868247Y-87754285D01*
X159868247Y-87754285D02*
X159773009Y-87801904D01*
X159773009Y-87801904D02*
X159725390Y-87849523D01*
X159725390Y-87849523D02*
X159677771Y-87944761D01*
X159677771Y-87944761D02*
X159677771Y-88135237D01*
X159677771Y-88135237D02*
X159725390Y-88230475D01*
X159725390Y-88230475D02*
X159773009Y-88278094D01*
X159773009Y-88278094D02*
X159868247Y-88325713D01*
X168033333Y-101159580D02*
X167985714Y-101207200D01*
X167985714Y-101207200D02*
X167842857Y-101254819D01*
X167842857Y-101254819D02*
X167747619Y-101254819D01*
X167747619Y-101254819D02*
X167604762Y-101207200D01*
X167604762Y-101207200D02*
X167509524Y-101111961D01*
X167509524Y-101111961D02*
X167461905Y-101016723D01*
X167461905Y-101016723D02*
X167414286Y-100826247D01*
X167414286Y-100826247D02*
X167414286Y-100683390D01*
X167414286Y-100683390D02*
X167461905Y-100492914D01*
X167461905Y-100492914D02*
X167509524Y-100397676D01*
X167509524Y-100397676D02*
X167604762Y-100302438D01*
X167604762Y-100302438D02*
X167747619Y-100254819D01*
X167747619Y-100254819D02*
X167842857Y-100254819D01*
X167842857Y-100254819D02*
X167985714Y-100302438D01*
X167985714Y-100302438D02*
X168033333Y-100350057D01*
X168414286Y-100350057D02*
X168461905Y-100302438D01*
X168461905Y-100302438D02*
X168557143Y-100254819D01*
X168557143Y-100254819D02*
X168795238Y-100254819D01*
X168795238Y-100254819D02*
X168890476Y-100302438D01*
X168890476Y-100302438D02*
X168938095Y-100350057D01*
X168938095Y-100350057D02*
X168985714Y-100445295D01*
X168985714Y-100445295D02*
X168985714Y-100540533D01*
X168985714Y-100540533D02*
X168938095Y-100683390D01*
X168938095Y-100683390D02*
X168366667Y-101254819D01*
X168366667Y-101254819D02*
X168985714Y-101254819D01*
X171561905Y-98954819D02*
X171561905Y-97954819D01*
X171561905Y-97954819D02*
X171800000Y-97954819D01*
X171800000Y-97954819D02*
X171942857Y-98002438D01*
X171942857Y-98002438D02*
X172038095Y-98097676D01*
X172038095Y-98097676D02*
X172085714Y-98192914D01*
X172085714Y-98192914D02*
X172133333Y-98383390D01*
X172133333Y-98383390D02*
X172133333Y-98526247D01*
X172133333Y-98526247D02*
X172085714Y-98716723D01*
X172085714Y-98716723D02*
X172038095Y-98811961D01*
X172038095Y-98811961D02*
X171942857Y-98907200D01*
X171942857Y-98907200D02*
X171800000Y-98954819D01*
X171800000Y-98954819D02*
X171561905Y-98954819D01*
X173085714Y-98954819D02*
X172514286Y-98954819D01*
X172800000Y-98954819D02*
X172800000Y-97954819D01*
X172800000Y-97954819D02*
X172704762Y-98097676D01*
X172704762Y-98097676D02*
X172609524Y-98192914D01*
X172609524Y-98192914D02*
X172514286Y-98240533D01*
X138366667Y-88037200D02*
X138509524Y-88084819D01*
X138509524Y-88084819D02*
X138747619Y-88084819D01*
X138747619Y-88084819D02*
X138842857Y-88037200D01*
X138842857Y-88037200D02*
X138890476Y-87989580D01*
X138890476Y-87989580D02*
X138938095Y-87894342D01*
X138938095Y-87894342D02*
X138938095Y-87799104D01*
X138938095Y-87799104D02*
X138890476Y-87703866D01*
X138890476Y-87703866D02*
X138842857Y-87656247D01*
X138842857Y-87656247D02*
X138747619Y-87608628D01*
X138747619Y-87608628D02*
X138557143Y-87561009D01*
X138557143Y-87561009D02*
X138461905Y-87513390D01*
X138461905Y-87513390D02*
X138414286Y-87465771D01*
X138414286Y-87465771D02*
X138366667Y-87370533D01*
X138366667Y-87370533D02*
X138366667Y-87275295D01*
X138366667Y-87275295D02*
X138414286Y-87180057D01*
X138414286Y-87180057D02*
X138461905Y-87132438D01*
X138461905Y-87132438D02*
X138557143Y-87084819D01*
X138557143Y-87084819D02*
X138795238Y-87084819D01*
X138795238Y-87084819D02*
X138938095Y-87132438D01*
X139271429Y-87084819D02*
X139509524Y-88084819D01*
X139509524Y-88084819D02*
X139700000Y-87370533D01*
X139700000Y-87370533D02*
X139890476Y-88084819D01*
X139890476Y-88084819D02*
X140128572Y-87084819D01*
X141033333Y-88084819D02*
X140461905Y-88084819D01*
X140747619Y-88084819D02*
X140747619Y-87084819D01*
X140747619Y-87084819D02*
X140652381Y-87227676D01*
X140652381Y-87227676D02*
X140557143Y-87322914D01*
X140557143Y-87322914D02*
X140461905Y-87370533D01*
X148433333Y-104154819D02*
X148100000Y-103678628D01*
X147861905Y-104154819D02*
X147861905Y-103154819D01*
X147861905Y-103154819D02*
X148242857Y-103154819D01*
X148242857Y-103154819D02*
X148338095Y-103202438D01*
X148338095Y-103202438D02*
X148385714Y-103250057D01*
X148385714Y-103250057D02*
X148433333Y-103345295D01*
X148433333Y-103345295D02*
X148433333Y-103488152D01*
X148433333Y-103488152D02*
X148385714Y-103583390D01*
X148385714Y-103583390D02*
X148338095Y-103631009D01*
X148338095Y-103631009D02*
X148242857Y-103678628D01*
X148242857Y-103678628D02*
X147861905Y-103678628D01*
X148814286Y-103250057D02*
X148861905Y-103202438D01*
X148861905Y-103202438D02*
X148957143Y-103154819D01*
X148957143Y-103154819D02*
X149195238Y-103154819D01*
X149195238Y-103154819D02*
X149290476Y-103202438D01*
X149290476Y-103202438D02*
X149338095Y-103250057D01*
X149338095Y-103250057D02*
X149385714Y-103345295D01*
X149385714Y-103345295D02*
X149385714Y-103440533D01*
X149385714Y-103440533D02*
X149338095Y-103583390D01*
X149338095Y-103583390D02*
X148766667Y-104154819D01*
X148766667Y-104154819D02*
X149385714Y-104154819D01*
X148566333Y-86059580D02*
X148518714Y-86107200D01*
X148518714Y-86107200D02*
X148375857Y-86154819D01*
X148375857Y-86154819D02*
X148280619Y-86154819D01*
X148280619Y-86154819D02*
X148137762Y-86107200D01*
X148137762Y-86107200D02*
X148042524Y-86011961D01*
X148042524Y-86011961D02*
X147994905Y-85916723D01*
X147994905Y-85916723D02*
X147947286Y-85726247D01*
X147947286Y-85726247D02*
X147947286Y-85583390D01*
X147947286Y-85583390D02*
X147994905Y-85392914D01*
X147994905Y-85392914D02*
X148042524Y-85297676D01*
X148042524Y-85297676D02*
X148137762Y-85202438D01*
X148137762Y-85202438D02*
X148280619Y-85154819D01*
X148280619Y-85154819D02*
X148375857Y-85154819D01*
X148375857Y-85154819D02*
X148518714Y-85202438D01*
X148518714Y-85202438D02*
X148566333Y-85250057D01*
X149471095Y-85154819D02*
X148994905Y-85154819D01*
X148994905Y-85154819D02*
X148947286Y-85631009D01*
X148947286Y-85631009D02*
X148994905Y-85583390D01*
X148994905Y-85583390D02*
X149090143Y-85535771D01*
X149090143Y-85535771D02*
X149328238Y-85535771D01*
X149328238Y-85535771D02*
X149423476Y-85583390D01*
X149423476Y-85583390D02*
X149471095Y-85631009D01*
X149471095Y-85631009D02*
X149518714Y-85726247D01*
X149518714Y-85726247D02*
X149518714Y-85964342D01*
X149518714Y-85964342D02*
X149471095Y-86059580D01*
X149471095Y-86059580D02*
X149423476Y-86107200D01*
X149423476Y-86107200D02*
X149328238Y-86154819D01*
X149328238Y-86154819D02*
X149090143Y-86154819D01*
X149090143Y-86154819D02*
X148994905Y-86107200D01*
X148994905Y-86107200D02*
X148947286Y-86059580D01*
X145956580Y-94466666D02*
X146004200Y-94514285D01*
X146004200Y-94514285D02*
X146051819Y-94657142D01*
X146051819Y-94657142D02*
X146051819Y-94752380D01*
X146051819Y-94752380D02*
X146004200Y-94895237D01*
X146004200Y-94895237D02*
X145908961Y-94990475D01*
X145908961Y-94990475D02*
X145813723Y-95038094D01*
X145813723Y-95038094D02*
X145623247Y-95085713D01*
X145623247Y-95085713D02*
X145480390Y-95085713D01*
X145480390Y-95085713D02*
X145289914Y-95038094D01*
X145289914Y-95038094D02*
X145194676Y-94990475D01*
X145194676Y-94990475D02*
X145099438Y-94895237D01*
X145099438Y-94895237D02*
X145051819Y-94752380D01*
X145051819Y-94752380D02*
X145051819Y-94657142D01*
X145051819Y-94657142D02*
X145099438Y-94514285D01*
X145099438Y-94514285D02*
X145147057Y-94466666D01*
X145051819Y-94133332D02*
X145051819Y-93466666D01*
X145051819Y-93466666D02*
X146051819Y-93895237D01*
X157872095Y-104554819D02*
X157872095Y-105364342D01*
X157872095Y-105364342D02*
X157919714Y-105459580D01*
X157919714Y-105459580D02*
X157967333Y-105507200D01*
X157967333Y-105507200D02*
X158062571Y-105554819D01*
X158062571Y-105554819D02*
X158253047Y-105554819D01*
X158253047Y-105554819D02*
X158348285Y-105507200D01*
X158348285Y-105507200D02*
X158395904Y-105459580D01*
X158395904Y-105459580D02*
X158443523Y-105364342D01*
X158443523Y-105364342D02*
X158443523Y-104554819D01*
X159443523Y-105554819D02*
X158872095Y-105554819D01*
X159157809Y-105554819D02*
X159157809Y-104554819D01*
X159157809Y-104554819D02*
X159062571Y-104697676D01*
X159062571Y-104697676D02*
X158967333Y-104792914D01*
X158967333Y-104792914D02*
X158872095Y-104840533D01*
X140657142Y-98059580D02*
X140609523Y-98107200D01*
X140609523Y-98107200D02*
X140466666Y-98154819D01*
X140466666Y-98154819D02*
X140371428Y-98154819D01*
X140371428Y-98154819D02*
X140228571Y-98107200D01*
X140228571Y-98107200D02*
X140133333Y-98011961D01*
X140133333Y-98011961D02*
X140085714Y-97916723D01*
X140085714Y-97916723D02*
X140038095Y-97726247D01*
X140038095Y-97726247D02*
X140038095Y-97583390D01*
X140038095Y-97583390D02*
X140085714Y-97392914D01*
X140085714Y-97392914D02*
X140133333Y-97297676D01*
X140133333Y-97297676D02*
X140228571Y-97202438D01*
X140228571Y-97202438D02*
X140371428Y-97154819D01*
X140371428Y-97154819D02*
X140466666Y-97154819D01*
X140466666Y-97154819D02*
X140609523Y-97202438D01*
X140609523Y-97202438D02*
X140657142Y-97250057D01*
X141609523Y-98154819D02*
X141038095Y-98154819D01*
X141323809Y-98154819D02*
X141323809Y-97154819D01*
X141323809Y-97154819D02*
X141228571Y-97297676D01*
X141228571Y-97297676D02*
X141133333Y-97392914D01*
X141133333Y-97392914D02*
X141038095Y-97440533D01*
X141942857Y-97154819D02*
X142561904Y-97154819D01*
X142561904Y-97154819D02*
X142228571Y-97535771D01*
X142228571Y-97535771D02*
X142371428Y-97535771D01*
X142371428Y-97535771D02*
X142466666Y-97583390D01*
X142466666Y-97583390D02*
X142514285Y-97631009D01*
X142514285Y-97631009D02*
X142561904Y-97726247D01*
X142561904Y-97726247D02*
X142561904Y-97964342D01*
X142561904Y-97964342D02*
X142514285Y-98059580D01*
X142514285Y-98059580D02*
X142466666Y-98107200D01*
X142466666Y-98107200D02*
X142371428Y-98154819D01*
X142371428Y-98154819D02*
X142085714Y-98154819D01*
X142085714Y-98154819D02*
X141990476Y-98107200D01*
X141990476Y-98107200D02*
X141942857Y-98059580D01*
X163167333Y-96459580D02*
X163119714Y-96507200D01*
X163119714Y-96507200D02*
X162976857Y-96554819D01*
X162976857Y-96554819D02*
X162881619Y-96554819D01*
X162881619Y-96554819D02*
X162738762Y-96507200D01*
X162738762Y-96507200D02*
X162643524Y-96411961D01*
X162643524Y-96411961D02*
X162595905Y-96316723D01*
X162595905Y-96316723D02*
X162548286Y-96126247D01*
X162548286Y-96126247D02*
X162548286Y-95983390D01*
X162548286Y-95983390D02*
X162595905Y-95792914D01*
X162595905Y-95792914D02*
X162643524Y-95697676D01*
X162643524Y-95697676D02*
X162738762Y-95602438D01*
X162738762Y-95602438D02*
X162881619Y-95554819D01*
X162881619Y-95554819D02*
X162976857Y-95554819D01*
X162976857Y-95554819D02*
X163119714Y-95602438D01*
X163119714Y-95602438D02*
X163167333Y-95650057D01*
X164119714Y-96554819D02*
X163548286Y-96554819D01*
X163834000Y-96554819D02*
X163834000Y-95554819D01*
X163834000Y-95554819D02*
X163738762Y-95697676D01*
X163738762Y-95697676D02*
X163643524Y-95792914D01*
X163643524Y-95792914D02*
X163548286Y-95840533D01*
X155538095Y-86454819D02*
X155538095Y-87264342D01*
X155538095Y-87264342D02*
X155585714Y-87359580D01*
X155585714Y-87359580D02*
X155633333Y-87407200D01*
X155633333Y-87407200D02*
X155728571Y-87454819D01*
X155728571Y-87454819D02*
X155919047Y-87454819D01*
X155919047Y-87454819D02*
X156014285Y-87407200D01*
X156014285Y-87407200D02*
X156061904Y-87359580D01*
X156061904Y-87359580D02*
X156109523Y-87264342D01*
X156109523Y-87264342D02*
X156109523Y-86454819D01*
X156538095Y-86550057D02*
X156585714Y-86502438D01*
X156585714Y-86502438D02*
X156680952Y-86454819D01*
X156680952Y-86454819D02*
X156919047Y-86454819D01*
X156919047Y-86454819D02*
X157014285Y-86502438D01*
X157014285Y-86502438D02*
X157061904Y-86550057D01*
X157061904Y-86550057D02*
X157109523Y-86645295D01*
X157109523Y-86645295D02*
X157109523Y-86740533D01*
X157109523Y-86740533D02*
X157061904Y-86883390D01*
X157061904Y-86883390D02*
X156490476Y-87454819D01*
X156490476Y-87454819D02*
X157109523Y-87454819D01*
%TO.C,G\u002A\u002A\u002A*%
G36*
X137810774Y-99033380D02*
G01*
X137875923Y-99034038D01*
X137923993Y-99035415D01*
X137958114Y-99037741D01*
X137981413Y-99041242D01*
X137997017Y-99046150D01*
X138008054Y-99052693D01*
X138009756Y-99054028D01*
X138021079Y-99066665D01*
X138030978Y-99087002D01*
X138040580Y-99118825D01*
X138051011Y-99165923D01*
X138063399Y-99232081D01*
X138064393Y-99237659D01*
X138074878Y-99295966D01*
X138083968Y-99345188D01*
X138090881Y-99381200D01*
X138094839Y-99399878D01*
X138095398Y-99401570D01*
X138106414Y-99405992D01*
X138134504Y-99417060D01*
X138175003Y-99432940D01*
X138208600Y-99446077D01*
X138268936Y-99471487D01*
X138333238Y-99501510D01*
X138390467Y-99530910D01*
X138406947Y-99540178D01*
X138494166Y-99590870D01*
X138546670Y-99553127D01*
X138626875Y-99495844D01*
X138690606Y-99451273D01*
X138740008Y-99418062D01*
X138777226Y-99394855D01*
X138804404Y-99380298D01*
X138823687Y-99373038D01*
X138834226Y-99371567D01*
X138853250Y-99376523D01*
X138879208Y-99392735D01*
X138914755Y-99422215D01*
X138962549Y-99466979D01*
X138971186Y-99475377D01*
X139077538Y-99579187D01*
X139410060Y-99592060D01*
X139526052Y-99596905D01*
X139619976Y-99601655D01*
X139693101Y-99606439D01*
X139746692Y-99611385D01*
X139782017Y-99616621D01*
X139800343Y-99622274D01*
X139802935Y-99628473D01*
X139799466Y-99631377D01*
X139782028Y-99635659D01*
X139745316Y-99640358D01*
X139693379Y-99645216D01*
X139630267Y-99649969D01*
X139560031Y-99654360D01*
X139486721Y-99658126D01*
X139414386Y-99661007D01*
X139347077Y-99662743D01*
X139305681Y-99663137D01*
X139160466Y-99663252D01*
X139196950Y-99701172D01*
X139230723Y-99745015D01*
X139242566Y-99784829D01*
X139232975Y-99823042D01*
X139224523Y-99836660D01*
X139208350Y-99861118D01*
X139200259Y-99876769D01*
X139200046Y-99877984D01*
X139211185Y-99879925D01*
X139242486Y-99881684D01*
X139290778Y-99883179D01*
X139352889Y-99884330D01*
X139425646Y-99885055D01*
X139482981Y-99885267D01*
X139570577Y-99885708D01*
X139669230Y-99886785D01*
X139775900Y-99888417D01*
X139887546Y-99890523D01*
X140001128Y-99893019D01*
X140113606Y-99895824D01*
X140221941Y-99898857D01*
X140323091Y-99902035D01*
X140414016Y-99905277D01*
X140491677Y-99908501D01*
X140553033Y-99911625D01*
X140595044Y-99914567D01*
X140603708Y-99915434D01*
X140641912Y-99921047D01*
X140657968Y-99926607D01*
X140653062Y-99932049D01*
X140628379Y-99937313D01*
X140585106Y-99942336D01*
X140524429Y-99947055D01*
X140447535Y-99951409D01*
X140355610Y-99955334D01*
X140249839Y-99958770D01*
X140131409Y-99961653D01*
X140001507Y-99963921D01*
X139861317Y-99965512D01*
X139712028Y-99966365D01*
X139630941Y-99966495D01*
X139134275Y-99966606D01*
X139078163Y-100044606D01*
X139022051Y-100122607D01*
X139049551Y-100172948D01*
X139077051Y-100223289D01*
X139724837Y-100223400D01*
X139886678Y-100223733D01*
X140045821Y-100224645D01*
X140200417Y-100226094D01*
X140348613Y-100228032D01*
X140488559Y-100230416D01*
X140618405Y-100233200D01*
X140736299Y-100236339D01*
X140840391Y-100239789D01*
X140928830Y-100243503D01*
X140999765Y-100247439D01*
X141051344Y-100251549D01*
X141081719Y-100255791D01*
X141084336Y-100256437D01*
X141101169Y-100261897D01*
X141102026Y-100265909D01*
X141084443Y-100269693D01*
X141048581Y-100274173D01*
X140993282Y-100279015D01*
X140916978Y-100283413D01*
X140821707Y-100287367D01*
X140709505Y-100290876D01*
X140582411Y-100293941D01*
X140442461Y-100296561D01*
X140291694Y-100298737D01*
X140132146Y-100300468D01*
X139965856Y-100301754D01*
X139794861Y-100302596D01*
X139621199Y-100302993D01*
X139446906Y-100302945D01*
X139274021Y-100302453D01*
X139104581Y-100301515D01*
X138940623Y-100300132D01*
X138784186Y-100298304D01*
X138637306Y-100296031D01*
X138502021Y-100293313D01*
X138380369Y-100290149D01*
X138274387Y-100286540D01*
X138186112Y-100282485D01*
X138117583Y-100277985D01*
X138079973Y-100274269D01*
X138045748Y-100268538D01*
X138034468Y-100262765D01*
X138045739Y-100257041D01*
X138079171Y-100251457D01*
X138134374Y-100246107D01*
X138210954Y-100241080D01*
X138224842Y-100240329D01*
X138375545Y-100232383D01*
X138329849Y-100192698D01*
X138258795Y-100137036D01*
X138177335Y-100082971D01*
X138094062Y-100035781D01*
X138017566Y-100000742D01*
X138016860Y-100000469D01*
X137875356Y-99957073D01*
X137733654Y-99935017D01*
X137593869Y-99933724D01*
X137458115Y-99952616D01*
X137328506Y-99991114D01*
X137207157Y-100048641D01*
X137096182Y-100124619D01*
X136997695Y-100218468D01*
X136936315Y-100295911D01*
X136865568Y-100415705D01*
X136815993Y-100541400D01*
X136786785Y-100671054D01*
X136777139Y-100802730D01*
X136786248Y-100934486D01*
X136813307Y-101064384D01*
X136857509Y-101190483D01*
X136918050Y-101310845D01*
X136994123Y-101423528D01*
X137084923Y-101526594D01*
X137189644Y-101618103D01*
X137307480Y-101696114D01*
X137437625Y-101758689D01*
X137560772Y-101799203D01*
X137620677Y-101812323D01*
X137683668Y-101820157D01*
X137758044Y-101823585D01*
X137794121Y-101823922D01*
X137908660Y-101819206D01*
X138009315Y-101803537D01*
X138103639Y-101775171D01*
X138199190Y-101732367D01*
X138205826Y-101728938D01*
X138248256Y-101704827D01*
X138294741Y-101675177D01*
X138341072Y-101643098D01*
X138383043Y-101611698D01*
X138416447Y-101584086D01*
X138437076Y-101563370D01*
X138441663Y-101554671D01*
X138430653Y-101551065D01*
X138400232Y-101547115D01*
X138354313Y-101543179D01*
X138296810Y-101539614D01*
X138256013Y-101537704D01*
X138170093Y-101533411D01*
X138104191Y-101528499D01*
X138058917Y-101523086D01*
X138034883Y-101517285D01*
X138032696Y-101511214D01*
X138052969Y-101504988D01*
X138068993Y-101502255D01*
X138118085Y-101496863D01*
X138188212Y-101492029D01*
X138277081Y-101487753D01*
X138382399Y-101484033D01*
X138501873Y-101480872D01*
X138633209Y-101478267D01*
X138774114Y-101476220D01*
X138922296Y-101474730D01*
X139075460Y-101473798D01*
X139231314Y-101473423D01*
X139387566Y-101473605D01*
X139541920Y-101474344D01*
X139692085Y-101475641D01*
X139835768Y-101477496D01*
X139970675Y-101479907D01*
X140094512Y-101482876D01*
X140204988Y-101486403D01*
X140299808Y-101490486D01*
X140376680Y-101495128D01*
X140433310Y-101500326D01*
X140447774Y-101502255D01*
X140477958Y-101507543D01*
X140487524Y-101512169D01*
X140479061Y-101517880D01*
X140473901Y-101519879D01*
X140451188Y-101524175D01*
X140407783Y-101528500D01*
X140346331Y-101532762D01*
X140269475Y-101536867D01*
X140179857Y-101540720D01*
X140080121Y-101544228D01*
X139972912Y-101547297D01*
X139860871Y-101549833D01*
X139746642Y-101551742D01*
X139632869Y-101552931D01*
X139532406Y-101553307D01*
X139170554Y-101553377D01*
X139138381Y-101626171D01*
X139106208Y-101698966D01*
X139139049Y-101745762D01*
X139171891Y-101792559D01*
X139264724Y-101795181D01*
X139348722Y-101797888D01*
X139437256Y-101801333D01*
X139527038Y-101805329D01*
X139614779Y-101809690D01*
X139697190Y-101814231D01*
X139770983Y-101818766D01*
X139832869Y-101823109D01*
X139879559Y-101827075D01*
X139907766Y-101830478D01*
X139913705Y-101831831D01*
X139930994Y-101839137D01*
X139927802Y-101843925D01*
X139909003Y-101849081D01*
X139886242Y-101852390D01*
X139844327Y-101856247D01*
X139787423Y-101860427D01*
X139719700Y-101864705D01*
X139645324Y-101868856D01*
X139568462Y-101872657D01*
X139493282Y-101875882D01*
X139423951Y-101878306D01*
X139364637Y-101879705D01*
X139336344Y-101879959D01*
X139233459Y-101880065D01*
X139257589Y-101913951D01*
X139272410Y-101936696D01*
X139280820Y-101957316D01*
X139281395Y-101978348D01*
X139272715Y-102002329D01*
X139253356Y-102031794D01*
X139221898Y-102069280D01*
X139176918Y-102117325D01*
X139116995Y-102178462D01*
X139099293Y-102196311D01*
X139044760Y-102250308D01*
X138994177Y-102298667D01*
X138950325Y-102338869D01*
X138915982Y-102368390D01*
X138893930Y-102384710D01*
X138889040Y-102387012D01*
X138871933Y-102389471D01*
X138853727Y-102386668D01*
X138830723Y-102376731D01*
X138799219Y-102357787D01*
X138755518Y-102327964D01*
X138714032Y-102298423D01*
X138672562Y-102269525D01*
X138637434Y-102246677D01*
X138613340Y-102232842D01*
X138605849Y-102230088D01*
X138590178Y-102235056D01*
X138559274Y-102248349D01*
X138518617Y-102267543D01*
X138498528Y-102277498D01*
X138448423Y-102300839D01*
X138390336Y-102325011D01*
X138329580Y-102348127D01*
X138271469Y-102368296D01*
X138221314Y-102383630D01*
X138184430Y-102392239D01*
X138172482Y-102393432D01*
X138163403Y-102393805D01*
X138156351Y-102397089D01*
X138150359Y-102406526D01*
X138144457Y-102425359D01*
X138137678Y-102456832D01*
X138129053Y-102504189D01*
X138117614Y-102570672D01*
X138115007Y-102585944D01*
X138103242Y-102650052D01*
X138092799Y-102694850D01*
X138082507Y-102724233D01*
X138071196Y-102742093D01*
X138066743Y-102746371D01*
X138056530Y-102753086D01*
X138041977Y-102758164D01*
X138019992Y-102761828D01*
X137987482Y-102764300D01*
X137941353Y-102765803D01*
X137878512Y-102766557D01*
X137795867Y-102766787D01*
X137782453Y-102766789D01*
X137696756Y-102766616D01*
X137631284Y-102765949D01*
X137582931Y-102764562D01*
X137548590Y-102762233D01*
X137525154Y-102758739D01*
X137509514Y-102753856D01*
X137498565Y-102747360D01*
X137497177Y-102746267D01*
X137486436Y-102734213D01*
X137476885Y-102714575D01*
X137467500Y-102683772D01*
X137457253Y-102638220D01*
X137445118Y-102574338D01*
X137440479Y-102548370D01*
X137409124Y-102370995D01*
X137304849Y-102334582D01*
X137243979Y-102311616D01*
X137177668Y-102283934D01*
X137118570Y-102256863D01*
X137109189Y-102252222D01*
X137080027Y-102237560D01*
X138010316Y-102237560D01*
X138011187Y-102240031D01*
X138029576Y-102238140D01*
X138063691Y-102231932D01*
X138111739Y-102221450D01*
X138126642Y-102217947D01*
X138182119Y-102203674D01*
X138238149Y-102187550D01*
X138283970Y-102172700D01*
X138289986Y-102170520D01*
X138336425Y-102151598D01*
X138385680Y-102128727D01*
X138433460Y-102104278D01*
X138475476Y-102080622D01*
X138507437Y-102060131D01*
X138525052Y-102045174D01*
X138526839Y-102039639D01*
X138527095Y-102033352D01*
X138531298Y-102035286D01*
X138547734Y-102035026D01*
X138568342Y-102024245D01*
X138584337Y-102009119D01*
X138587095Y-101996074D01*
X138589682Y-101990222D01*
X138598422Y-101992231D01*
X138614892Y-101987542D01*
X138644687Y-101965585D01*
X138688263Y-101925989D01*
X138724802Y-101890008D01*
X138782375Y-101830064D01*
X138829410Y-101775625D01*
X138871661Y-101719250D01*
X138914884Y-101653498D01*
X138942266Y-101608797D01*
X138968601Y-101565044D01*
X138899416Y-101565044D01*
X138860672Y-101565657D01*
X138838087Y-101569920D01*
X138824487Y-101581472D01*
X138812697Y-101603950D01*
X138809728Y-101610514D01*
X138792137Y-101644697D01*
X138767083Y-101687713D01*
X138744406Y-101723473D01*
X138722918Y-101758366D01*
X138709000Y-101785984D01*
X138705542Y-101800559D01*
X138705668Y-101800800D01*
X138704358Y-101807939D01*
X138701429Y-101807432D01*
X138688667Y-101813577D01*
X138666466Y-101832857D01*
X138639209Y-101860409D01*
X138611283Y-101891369D01*
X138587072Y-101920876D01*
X138570962Y-101944065D01*
X138567336Y-101956072D01*
X138567370Y-101956111D01*
X138567848Y-101960409D01*
X138562814Y-101958049D01*
X138546965Y-101959591D01*
X138529755Y-101973172D01*
X138518925Y-101990684D01*
X138520393Y-102002473D01*
X138520705Y-102006611D01*
X138514346Y-102003607D01*
X138495849Y-102004975D01*
X138469040Y-102020883D01*
X138463998Y-102024958D01*
X138406559Y-102066525D01*
X138333094Y-102109632D01*
X138250396Y-102150944D01*
X138165257Y-102187121D01*
X138084471Y-102214827D01*
X138068305Y-102219361D01*
X138028758Y-102230685D01*
X138010316Y-102237560D01*
X137080027Y-102237560D01*
X137017806Y-102206276D01*
X136861361Y-102317355D01*
X136789444Y-102367006D01*
X136734419Y-102401782D01*
X136695560Y-102422112D01*
X136672804Y-102428434D01*
X136658853Y-102425415D01*
X136640250Y-102415140D01*
X136614829Y-102395778D01*
X136580426Y-102365500D01*
X136534877Y-102322478D01*
X136476018Y-102264881D01*
X136456974Y-102246009D01*
X136402977Y-102191476D01*
X136354617Y-102140893D01*
X136314416Y-102097040D01*
X136284894Y-102062698D01*
X136268575Y-102040646D01*
X136266273Y-102035756D01*
X136263669Y-102022134D01*
X136264348Y-102008506D01*
X136270001Y-101991708D01*
X136282317Y-101968576D01*
X136302986Y-101935946D01*
X136333696Y-101890655D01*
X136376139Y-101829538D01*
X136377260Y-101827931D01*
X136470301Y-101694517D01*
X136430813Y-101632697D01*
X136393657Y-101569977D01*
X136354753Y-101496757D01*
X136318955Y-101422650D01*
X136291114Y-101357269D01*
X136289154Y-101352113D01*
X136277055Y-101320654D01*
X136268777Y-101300573D01*
X136266724Y-101296693D01*
X136255304Y-101294810D01*
X136224961Y-101289625D01*
X136179761Y-101281840D01*
X136123772Y-101272152D01*
X136096214Y-101267372D01*
X136026393Y-101254678D01*
X135976135Y-101243976D01*
X135941864Y-101234248D01*
X135920003Y-101224479D01*
X135906976Y-101213651D01*
X135906913Y-101213576D01*
X135900198Y-101203320D01*
X135895120Y-101188727D01*
X135891456Y-101166703D01*
X135888984Y-101134153D01*
X135887481Y-101087983D01*
X135886727Y-101025098D01*
X135886498Y-100942404D01*
X135886495Y-100929169D01*
X135886593Y-100881149D01*
X136458982Y-100881149D01*
X136462381Y-100989640D01*
X136469127Y-101051433D01*
X136504092Y-101212204D01*
X136559956Y-101366016D01*
X136634970Y-101511113D01*
X136727385Y-101645741D01*
X136835450Y-101768144D01*
X136957417Y-101876569D01*
X137091535Y-101969261D01*
X137236055Y-102044464D01*
X137389226Y-102100425D01*
X137549300Y-102135388D01*
X137550093Y-102135504D01*
X137648495Y-102144654D01*
X137756422Y-102146019D01*
X137862233Y-102139751D01*
X137930575Y-102130594D01*
X138084309Y-102092192D01*
X138228332Y-102033011D01*
X138361077Y-101954139D01*
X138480977Y-101856666D01*
X138586462Y-101741680D01*
X138673418Y-101614631D01*
X138692568Y-101577449D01*
X138697710Y-101557207D01*
X138690859Y-101553880D01*
X138674032Y-101567445D01*
X138649245Y-101597878D01*
X138637369Y-101615046D01*
X138574395Y-101695644D01*
X138494626Y-101775724D01*
X138404142Y-101850157D01*
X138309024Y-101913813D01*
X138239138Y-101951007D01*
X138092909Y-102006927D01*
X137942107Y-102040870D01*
X137788750Y-102053244D01*
X137634853Y-102044457D01*
X137482433Y-102014917D01*
X137333508Y-101965032D01*
X137190092Y-101895212D01*
X137054204Y-101805862D01*
X136927860Y-101697393D01*
X136912920Y-101682593D01*
X136800254Y-101553026D01*
X136707199Y-101410830D01*
X136633724Y-101255951D01*
X136588686Y-101121682D01*
X136576649Y-101076351D01*
X136568213Y-101036888D01*
X136562776Y-100997394D01*
X136559739Y-100951967D01*
X136558502Y-100894707D01*
X136558449Y-100824162D01*
X136559087Y-100750780D01*
X136560770Y-100695013D01*
X136564138Y-100651145D01*
X136569833Y-100613460D01*
X136578493Y-100576241D01*
X136590762Y-100533774D01*
X136591154Y-100532486D01*
X136628033Y-100425305D01*
X136670070Y-100332689D01*
X136721597Y-100245881D01*
X136759732Y-100191783D01*
X136859348Y-100076897D01*
X136975032Y-99978009D01*
X137104162Y-99897147D01*
X137195968Y-99854440D01*
X137244540Y-99834032D01*
X137271242Y-99821261D01*
X137276314Y-99816303D01*
X137259995Y-99819335D01*
X137222525Y-99830535D01*
X137181831Y-99844012D01*
X137037316Y-99905103D01*
X136905722Y-99985099D01*
X136788252Y-100082724D01*
X136686112Y-100196703D01*
X136600504Y-100325760D01*
X136532633Y-100468621D01*
X136498833Y-100567478D01*
X136477741Y-100661384D01*
X136464280Y-100768835D01*
X136458982Y-100881149D01*
X135886593Y-100881149D01*
X135886670Y-100843449D01*
X135887341Y-100777964D01*
X135888731Y-100729613D01*
X135891063Y-100695297D01*
X135894557Y-100671917D01*
X135899438Y-100656374D01*
X135905926Y-100645568D01*
X135906913Y-100644332D01*
X135915236Y-100637483D01*
X136353193Y-100637483D01*
X136359026Y-100643317D01*
X136364860Y-100637483D01*
X136359026Y-100631649D01*
X136353193Y-100637483D01*
X135915236Y-100637483D01*
X135922584Y-100631437D01*
X135949188Y-100620021D01*
X135990716Y-100608778D01*
X136051160Y-100596402D01*
X136056377Y-100595427D01*
X136163984Y-100575415D01*
X136366858Y-100575415D01*
X136366883Y-100586137D01*
X136371481Y-100578820D01*
X136380770Y-100551618D01*
X136388476Y-100525574D01*
X136404668Y-100475901D01*
X136426667Y-100417371D01*
X136449925Y-100362035D01*
X136451661Y-100358202D01*
X136523367Y-100224280D01*
X136611820Y-100102329D01*
X136693442Y-100013509D01*
X136818344Y-99904841D01*
X136953702Y-99816786D01*
X136963747Y-99812140D01*
X137303315Y-99812140D01*
X137314784Y-99814008D01*
X137329916Y-99811863D01*
X137330097Y-99807880D01*
X137314481Y-99805095D01*
X137307734Y-99806959D01*
X137303315Y-99812140D01*
X136963747Y-99812140D01*
X137100097Y-99749073D01*
X137258111Y-99701432D01*
X137420138Y-99674449D01*
X137568155Y-99668965D01*
X137721951Y-99682521D01*
X137876667Y-99713772D01*
X138027441Y-99761376D01*
X138169415Y-99823989D01*
X138297729Y-99900268D01*
X138335165Y-99927385D01*
X138365057Y-99947717D01*
X138388114Y-99959023D01*
X138396708Y-99959712D01*
X138404490Y-99959917D01*
X138404033Y-99962828D01*
X138410301Y-99974997D01*
X138430018Y-99997897D01*
X138459036Y-100027672D01*
X138493209Y-100060467D01*
X138528391Y-100092425D01*
X138560435Y-100119690D01*
X138585194Y-100138406D01*
X138598523Y-100144717D01*
X138599258Y-100144376D01*
X138603620Y-100143829D01*
X138601203Y-100148996D01*
X138602596Y-100166245D01*
X138616077Y-100190636D01*
X138618034Y-100193200D01*
X138630266Y-100207349D01*
X138643507Y-100216275D01*
X138662986Y-100221068D01*
X138693932Y-100222820D01*
X138741572Y-100222621D01*
X138757885Y-100222375D01*
X138806589Y-100221114D01*
X138845143Y-100219172D01*
X138868581Y-100216853D01*
X138873358Y-100215277D01*
X138867044Y-100202314D01*
X138850883Y-100176748D01*
X138829047Y-100144629D01*
X138805707Y-100112008D01*
X138785036Y-100084936D01*
X138776572Y-100074889D01*
X138756626Y-100058716D01*
X138741518Y-100056274D01*
X138734972Y-100056234D01*
X138736893Y-100051982D01*
X138736804Y-100034981D01*
X138725508Y-100014544D01*
X138709484Y-99999266D01*
X138695745Y-99997382D01*
X138688510Y-99997890D01*
X138690623Y-99992999D01*
X138686791Y-99978703D01*
X138667968Y-99954261D01*
X138638129Y-99923113D01*
X138601254Y-99888703D01*
X138561320Y-99854472D01*
X138522305Y-99823861D01*
X138488187Y-99800312D01*
X138462944Y-99787268D01*
X138452032Y-99786563D01*
X138443341Y-99788502D01*
X138444983Y-99783994D01*
X138440602Y-99770425D01*
X138417787Y-99750077D01*
X138379826Y-99724694D01*
X138330010Y-99696016D01*
X138271627Y-99665786D01*
X138207967Y-99635745D01*
X138142320Y-99607636D01*
X138077974Y-99583201D01*
X138044970Y-99572160D01*
X137923449Y-99539185D01*
X137803823Y-99518716D01*
X137676567Y-99509346D01*
X137613275Y-99508375D01*
X137441045Y-99519419D01*
X137276145Y-99551820D01*
X137120028Y-99604453D01*
X136974149Y-99676192D01*
X136839963Y-99765910D01*
X136718922Y-99872480D01*
X136612481Y-99994778D01*
X136522094Y-100131676D01*
X136449215Y-100282048D01*
X136395298Y-100444769D01*
X136393056Y-100453486D01*
X136380062Y-100507242D01*
X136371291Y-100548501D01*
X136366858Y-100575415D01*
X136163984Y-100575415D01*
X136185422Y-100571428D01*
X136198996Y-100492273D01*
X136219258Y-100400196D01*
X136249100Y-100298690D01*
X136285316Y-100197847D01*
X136313916Y-100130493D01*
X136331834Y-100088440D01*
X136344110Y-100053608D01*
X136348709Y-100032000D01*
X136348326Y-100029091D01*
X136339248Y-100013494D01*
X136319877Y-99984493D01*
X136293821Y-99947428D01*
X136283818Y-99933578D01*
X136249896Y-99882468D01*
X136229836Y-99842068D01*
X136224851Y-99819956D01*
X136227723Y-99806052D01*
X136237572Y-99787800D01*
X136256249Y-99763005D01*
X136285606Y-99729475D01*
X136327493Y-99685014D01*
X136383762Y-99627431D01*
X136407642Y-99603321D01*
X136481823Y-99529917D01*
X136541113Y-99474107D01*
X136585451Y-99435945D01*
X136614775Y-99415489D01*
X136623356Y-99412005D01*
X136642420Y-99410812D01*
X136664382Y-99417109D01*
X136693945Y-99433074D01*
X136735812Y-99460883D01*
X136749183Y-99470245D01*
X136842087Y-99535716D01*
X136944746Y-99484229D01*
X137012520Y-99453138D01*
X137089911Y-99422284D01*
X137169696Y-99394179D01*
X137244655Y-99371334D01*
X137307566Y-99356262D01*
X137317944Y-99354421D01*
X137350296Y-99346667D01*
X137366478Y-99334016D01*
X137372942Y-99315244D01*
X137377687Y-99290021D01*
X137385178Y-99248952D01*
X137394121Y-99199173D01*
X137398258Y-99175922D01*
X137409336Y-99120151D01*
X137419965Y-99083196D01*
X137431696Y-99060626D01*
X137442112Y-99050497D01*
X137454594Y-99044633D01*
X137475014Y-99040199D01*
X137506258Y-99037019D01*
X137551213Y-99034916D01*
X137612768Y-99033715D01*
X137693810Y-99033239D01*
X137725419Y-99033211D01*
X137810774Y-99033380D01*
G37*
G36*
X138686679Y-101862563D02*
G01*
X138680845Y-101868397D01*
X138675012Y-101862563D01*
X138680845Y-101856730D01*
X138686679Y-101862563D01*
G37*
G36*
X138698347Y-101827561D02*
G01*
X138692513Y-101833395D01*
X138686679Y-101827561D01*
X138692513Y-101821727D01*
X138698347Y-101827561D01*
G37*
G36*
X138780019Y-101804226D02*
G01*
X138774185Y-101810060D01*
X138768351Y-101804226D01*
X138774185Y-101798393D01*
X138780019Y-101804226D01*
G37*
G36*
X138756684Y-101745889D02*
G01*
X138750850Y-101751723D01*
X138745016Y-101745889D01*
X138750850Y-101740055D01*
X138756684Y-101745889D01*
G37*
G36*
X138838356Y-101745889D02*
G01*
X138832522Y-101751723D01*
X138826688Y-101745889D01*
X138832522Y-101740055D01*
X138838356Y-101745889D01*
G37*
G36*
X138908360Y-101640882D02*
G01*
X138902527Y-101646716D01*
X138896693Y-101640882D01*
X138902527Y-101635049D01*
X138908360Y-101640882D01*
G37*
G36*
X138906558Y-101604766D02*
G01*
X138918985Y-101615612D01*
X138920028Y-101618236D01*
X138914491Y-101623031D01*
X138902963Y-101612286D01*
X138901412Y-101609911D01*
X138900037Y-101601927D01*
X138906558Y-101604766D01*
G37*
G36*
X136516537Y-100205788D02*
G01*
X136510703Y-100211622D01*
X136504869Y-100205788D01*
X136510703Y-100199954D01*
X136516537Y-100205788D01*
G37*
G36*
X136539872Y-100182453D02*
G01*
X136534038Y-100188287D01*
X136528204Y-100182453D01*
X136534038Y-100176620D01*
X136539872Y-100182453D01*
G37*
G36*
X138628342Y-100124116D02*
G01*
X138622508Y-100129950D01*
X138616674Y-100124116D01*
X138622508Y-100118282D01*
X138628342Y-100124116D01*
G37*
G36*
X138523335Y-100054111D02*
G01*
X138517501Y-100059945D01*
X138511668Y-100054111D01*
X138517501Y-100048278D01*
X138523335Y-100054111D01*
G37*
G36*
X136644878Y-100030777D02*
G01*
X136639045Y-100036610D01*
X136633211Y-100030777D01*
X136639045Y-100024943D01*
X136644878Y-100030777D01*
G37*
G36*
X136701413Y-99947990D02*
G01*
X136713938Y-99959738D01*
X136711369Y-99966492D01*
X136709738Y-99966606D01*
X136699869Y-99958319D01*
X136696268Y-99953136D01*
X136694893Y-99945152D01*
X136701413Y-99947990D01*
G37*
G36*
X136738218Y-99949105D02*
G01*
X136732384Y-99954938D01*
X136726550Y-99949105D01*
X136732384Y-99943271D01*
X136738218Y-99949105D01*
G37*
G36*
X138383326Y-99937437D02*
G01*
X138377492Y-99943271D01*
X138371658Y-99937437D01*
X138377492Y-99931603D01*
X138383326Y-99937437D01*
G37*
G36*
X138570005Y-99914102D02*
G01*
X138564171Y-99919936D01*
X138558337Y-99914102D01*
X138564171Y-99908269D01*
X138570005Y-99914102D01*
G37*
G36*
X136757892Y-99892470D02*
G01*
X136755719Y-99896601D01*
X136744726Y-99907744D01*
X136742674Y-99908269D01*
X136741878Y-99900732D01*
X136744052Y-99896601D01*
X136755045Y-99885459D01*
X136757096Y-99884934D01*
X136757892Y-99892470D01*
G37*
G36*
X136808222Y-99890767D02*
G01*
X136802389Y-99896601D01*
X136796555Y-99890767D01*
X136802389Y-99884934D01*
X136808222Y-99890767D01*
G37*
G36*
X136796555Y-99855765D02*
G01*
X136790721Y-99861599D01*
X136784888Y-99855765D01*
X136790721Y-99849931D01*
X136796555Y-99855765D01*
G37*
G36*
X136878227Y-99844098D02*
G01*
X136872393Y-99849931D01*
X136866560Y-99844098D01*
X136872393Y-99838264D01*
X136878227Y-99844098D01*
G37*
G36*
X136959899Y-99785761D02*
G01*
X136954065Y-99791594D01*
X136948232Y-99785761D01*
X136954065Y-99779927D01*
X136959899Y-99785761D01*
G37*
G36*
X137006569Y-99774093D02*
G01*
X137000735Y-99779927D01*
X136994901Y-99774093D01*
X137000735Y-99768259D01*
X137006569Y-99774093D01*
G37*
G36*
X137053239Y-99750758D02*
G01*
X137047405Y-99756592D01*
X137041571Y-99750758D01*
X137047405Y-99744925D01*
X137053239Y-99750758D01*
G37*
D13*
%TO.C,C3*%
X150792164Y-99140000D02*
X151007836Y-99140000D01*
X150792164Y-99860000D02*
X151007836Y-99860000D01*
%TO.C,C4*%
X143840000Y-92207836D02*
X143840000Y-91992164D01*
X144560000Y-92207836D02*
X144560000Y-91992164D01*
%TO.C,Y1*%
X143420000Y-91200000D02*
X140120000Y-91200000D01*
X140120000Y-91200000D02*
X140120000Y-95200000D01*
%TO.C,R3*%
X152953641Y-104080000D02*
X152646359Y-104080000D01*
X152953641Y-103320000D02*
X152646359Y-103320000D01*
D12*
%TO.C,J3*%
X171295000Y-95850000D02*
X172695000Y-95850000D01*
X175095000Y-95850000D02*
X175245000Y-95850000D01*
X175245000Y-95850000D02*
X175245000Y-95550000D01*
X175245000Y-95550000D02*
X175695000Y-95550000D01*
X169120000Y-93500000D02*
X169545000Y-93500000D01*
X169545000Y-93500000D02*
X169545000Y-94500000D01*
X169120000Y-92775000D02*
X169120000Y-93500000D01*
X169545000Y-89900000D02*
X169545000Y-88900000D01*
X175245000Y-87850000D02*
X175245000Y-87550000D01*
X175695000Y-87850000D02*
X175245000Y-87850000D01*
X172695000Y-87550000D02*
X171295000Y-87550000D01*
X175245000Y-87550000D02*
X175095000Y-87550000D01*
D13*
%TO.C,R1*%
X174019359Y-100331500D02*
X174326641Y-100331500D01*
X174019359Y-101091500D02*
X174326641Y-101091500D01*
%TO.C,R4*%
X139269000Y-89470641D02*
X139269000Y-89163359D01*
X140029000Y-89470641D02*
X140029000Y-89163359D01*
%TO.C,R5*%
X162680000Y-90946359D02*
X162680000Y-91253641D01*
X161920000Y-90946359D02*
X161920000Y-91253641D01*
%TO.C,C8*%
X151380164Y-86798000D02*
X151595836Y-86798000D01*
X151380164Y-87518000D02*
X151595836Y-87518000D01*
%TO.C,C9*%
X147440000Y-89807836D02*
X147440000Y-89592164D01*
X148160000Y-89807836D02*
X148160000Y-89592164D01*
%TO.C,J2*%
X155711000Y-80113000D02*
X155711000Y-81443000D01*
X154381000Y-80113000D02*
X155711000Y-80113000D01*
X153111000Y-80113000D02*
X145431000Y-80113000D01*
X153111000Y-80113000D02*
X153111000Y-82773000D01*
X145431000Y-80113000D02*
X145431000Y-82773000D01*
X153111000Y-82773000D02*
X145431000Y-82773000D01*
%TO.C,FB1*%
X144162779Y-96910000D02*
X143837221Y-96910000D01*
X144162779Y-95890000D02*
X143837221Y-95890000D01*
%TO.C,C10*%
X157007836Y-99160000D02*
X156792164Y-99160000D01*
X157007836Y-98440000D02*
X156792164Y-98440000D01*
%TO.C,C12*%
X146340000Y-94307836D02*
X146340000Y-94092164D01*
X147060000Y-94307836D02*
X147060000Y-94092164D01*
%TO.C,J4*%
X167192000Y-80113000D02*
X167192000Y-81443000D01*
X165862000Y-80113000D02*
X167192000Y-80113000D01*
X164592000Y-80113000D02*
X156912000Y-80113000D01*
X164592000Y-80113000D02*
X164592000Y-82773000D01*
X156912000Y-80113000D02*
X156912000Y-82773000D01*
X164592000Y-82773000D02*
X156912000Y-82773000D01*
%TO.C,C11*%
X147640000Y-94307836D02*
X147640000Y-94092164D01*
X148360000Y-94307836D02*
X148360000Y-94092164D01*
%TO.C,C6*%
X160202000Y-90392164D02*
X160202000Y-90607836D01*
X159482000Y-90392164D02*
X159482000Y-90607836D01*
%TO.C,C2*%
X167465000Y-103461252D02*
X167465000Y-102938748D01*
X168935000Y-103461252D02*
X168935000Y-102938748D01*
%TO.C,J1*%
X146498000Y-107629000D02*
X146498000Y-106299000D01*
X147828000Y-107629000D02*
X146498000Y-107629000D01*
X149098000Y-107629000D02*
X156778000Y-107629000D01*
X149098000Y-107629000D02*
X149098000Y-104969000D01*
X156778000Y-107629000D02*
X156778000Y-104969000D01*
X149098000Y-104969000D02*
X156778000Y-104969000D01*
%TO.C,D1*%
X173565000Y-99885000D02*
X175035000Y-99885000D01*
X175035000Y-99885000D02*
X175035000Y-97600000D01*
X173565000Y-97600000D02*
X173565000Y-99885000D01*
%TO.C,SW1*%
X135570000Y-85613000D02*
X134780000Y-85613000D01*
X133770000Y-86213000D02*
X133770000Y-91913000D01*
X136620000Y-87463000D02*
X136620000Y-89163000D01*
X136620000Y-90463000D02*
X136620000Y-90663000D01*
X134780000Y-92513000D02*
X135570000Y-92513000D01*
%TO.C,R2*%
X150446359Y-103320000D02*
X150753641Y-103320000D01*
X150446359Y-104080000D02*
X150753641Y-104080000D01*
%TO.C,C5*%
X151259420Y-85190000D02*
X151540580Y-85190000D01*
X151259420Y-86210000D02*
X151540580Y-86210000D01*
%TO.C,C7*%
X143840000Y-94407836D02*
X143840000Y-94192164D01*
X144560000Y-94407836D02*
X144560000Y-94192164D01*
%TO.C,U1*%
X166710000Y-99607000D02*
X166710000Y-105617000D01*
X159890000Y-101857000D02*
X159890000Y-105617000D01*
X166710000Y-105617000D02*
X165450000Y-105617000D01*
X159890000Y-105617000D02*
X161150000Y-105617000D01*
%TO.C,C13*%
X141407836Y-96860000D02*
X141192164Y-96860000D01*
X141407836Y-96140000D02*
X141192164Y-96140000D01*
%TO.C,C1*%
X163072748Y-97065000D02*
X163595252Y-97065000D01*
X163072748Y-98535000D02*
X163595252Y-98535000D01*
%TO.C,U2*%
X150390000Y-89390000D02*
X150390000Y-89840000D01*
X150390000Y-89840000D02*
X149100000Y-89840000D01*
X150390000Y-96610000D02*
X150390000Y-96160000D01*
X150840000Y-89390000D02*
X150390000Y-89390000D01*
X150840000Y-96610000D02*
X150390000Y-96610000D01*
X157160000Y-89390000D02*
X157610000Y-89390000D01*
X157160000Y-96610000D02*
X157610000Y-96610000D01*
X157610000Y-89390000D02*
X157610000Y-89840000D01*
X157610000Y-96610000D02*
X157610000Y-96160000D01*
%TD*%
M02*
