%TF.GenerationSoftware,KiCad,Pcbnew,7.0.9*%
%TF.CreationDate,2023-12-08T01:22:57+08:00*%
%TF.ProjectId,Basic_STM32_Bluepill,42617369-635f-4535-944d-33325f426c75,rev?*%
%TF.SameCoordinates,Original*%
%TF.FileFunction,Copper,L1,Top*%
%TF.FilePolarity,Positive*%
%FSLAX46Y46*%
G04 Gerber Fmt 4.6, Leading zero omitted, Abs format (unit mm)*
G04 Created by KiCad (PCBNEW 7.0.9) date 2023-12-08 01:22:57*
%MOMM*%
%LPD*%
G01*
G04 APERTURE LIST*
G04 Aperture macros list*
%AMRoundRect*
0 Rectangle with rounded corners*
0 $1 Rounding radius*
0 $2 $3 $4 $5 $6 $7 $8 $9 X,Y pos of 4 corners*
0 Add a 4 corners polygon primitive as box body*
4,1,4,$2,$3,$4,$5,$6,$7,$8,$9,$2,$3,0*
0 Add four circle primitives for the rounded corners*
1,1,$1+$1,$2,$3*
1,1,$1+$1,$4,$5*
1,1,$1+$1,$6,$7*
1,1,$1+$1,$8,$9*
0 Add four rect primitives between the rounded corners*
20,1,$1+$1,$2,$3,$4,$5,0*
20,1,$1+$1,$4,$5,$6,$7,0*
20,1,$1+$1,$6,$7,$8,$9,0*
20,1,$1+$1,$8,$9,$2,$3,0*%
G04 Aperture macros list end*
%TA.AperFunction,SMDPad,CuDef*%
%ADD10RoundRect,0.140000X-0.140000X-0.170000X0.140000X-0.170000X0.140000X0.170000X-0.140000X0.170000X0*%
%TD*%
%TA.AperFunction,SMDPad,CuDef*%
%ADD11RoundRect,0.140000X0.170000X-0.140000X0.170000X0.140000X-0.170000X0.140000X-0.170000X-0.140000X0*%
%TD*%
%TA.AperFunction,SMDPad,CuDef*%
%ADD12R,1.200000X1.400000*%
%TD*%
%TA.AperFunction,SMDPad,CuDef*%
%ADD13RoundRect,0.135000X0.135000X0.185000X-0.135000X0.185000X-0.135000X-0.185000X0.135000X-0.185000X0*%
%TD*%
%TA.AperFunction,SMDPad,CuDef*%
%ADD14R,1.300000X0.450000*%
%TD*%
%TA.AperFunction,HeatsinkPad*%
%ADD15O,1.800000X1.150000*%
%TD*%
%TA.AperFunction,HeatsinkPad*%
%ADD16O,2.000000X1.450000*%
%TD*%
%TA.AperFunction,SMDPad,CuDef*%
%ADD17RoundRect,0.135000X-0.135000X-0.185000X0.135000X-0.185000X0.135000X0.185000X-0.135000X0.185000X0*%
%TD*%
%TA.AperFunction,SMDPad,CuDef*%
%ADD18RoundRect,0.135000X0.185000X-0.135000X0.185000X0.135000X-0.185000X0.135000X-0.185000X-0.135000X0*%
%TD*%
%TA.AperFunction,SMDPad,CuDef*%
%ADD19RoundRect,0.135000X-0.185000X0.135000X-0.185000X-0.135000X0.185000X-0.135000X0.185000X0.135000X0*%
%TD*%
%TA.AperFunction,ComponentPad*%
%ADD20R,1.700000X1.700000*%
%TD*%
%TA.AperFunction,ComponentPad*%
%ADD21O,1.700000X1.700000*%
%TD*%
%TA.AperFunction,SMDPad,CuDef*%
%ADD22RoundRect,0.218750X0.218750X0.256250X-0.218750X0.256250X-0.218750X-0.256250X0.218750X-0.256250X0*%
%TD*%
%TA.AperFunction,SMDPad,CuDef*%
%ADD23RoundRect,0.140000X0.140000X0.170000X-0.140000X0.170000X-0.140000X-0.170000X0.140000X-0.170000X0*%
%TD*%
%TA.AperFunction,SMDPad,CuDef*%
%ADD24RoundRect,0.140000X-0.170000X0.140000X-0.170000X-0.140000X0.170000X-0.140000X0.170000X0.140000X0*%
%TD*%
%TA.AperFunction,SMDPad,CuDef*%
%ADD25RoundRect,0.250000X0.475000X-0.250000X0.475000X0.250000X-0.475000X0.250000X-0.475000X-0.250000X0*%
%TD*%
%TA.AperFunction,SMDPad,CuDef*%
%ADD26RoundRect,0.218750X0.256250X-0.218750X0.256250X0.218750X-0.256250X0.218750X-0.256250X-0.218750X0*%
%TD*%
%TA.AperFunction,SMDPad,CuDef*%
%ADD27R,0.800000X1.000000*%
%TD*%
%TA.AperFunction,SMDPad,CuDef*%
%ADD28R,1.500000X0.700000*%
%TD*%
%TA.AperFunction,SMDPad,CuDef*%
%ADD29RoundRect,0.225000X-0.225000X-0.250000X0.225000X-0.250000X0.225000X0.250000X-0.225000X0.250000X0*%
%TD*%
%TA.AperFunction,SMDPad,CuDef*%
%ADD30R,1.500000X2.000000*%
%TD*%
%TA.AperFunction,SMDPad,CuDef*%
%ADD31R,3.800000X2.000000*%
%TD*%
%TA.AperFunction,SMDPad,CuDef*%
%ADD32RoundRect,0.250000X-0.250000X-0.475000X0.250000X-0.475000X0.250000X0.475000X-0.250000X0.475000X0*%
%TD*%
%TA.AperFunction,SMDPad,CuDef*%
%ADD33RoundRect,0.075000X-0.662500X-0.075000X0.662500X-0.075000X0.662500X0.075000X-0.662500X0.075000X0*%
%TD*%
%TA.AperFunction,SMDPad,CuDef*%
%ADD34RoundRect,0.075000X-0.075000X-0.662500X0.075000X-0.662500X0.075000X0.662500X-0.075000X0.662500X0*%
%TD*%
%TA.AperFunction,ViaPad*%
%ADD35C,0.700000*%
%TD*%
%TA.AperFunction,ViaPad*%
%ADD36C,0.800000*%
%TD*%
%TA.AperFunction,Conductor*%
%ADD37C,0.300000*%
%TD*%
%TA.AperFunction,Conductor*%
%ADD38C,0.500000*%
%TD*%
%TA.AperFunction,Conductor*%
%ADD39C,0.200000*%
%TD*%
G04 APERTURE END LIST*
D10*
%TO.P,C3,1*%
%TO.N,/NRST*%
X150420000Y-99500000D03*
%TO.P,C3,2*%
%TO.N,GND*%
X151380000Y-99500000D03*
%TD*%
D11*
%TO.P,C4,1*%
%TO.N,/HSE_IN*%
X144200000Y-92580000D03*
%TO.P,C4,2*%
%TO.N,GND*%
X144200000Y-91620000D03*
%TD*%
D12*
%TO.P,Y1,1,1*%
%TO.N,/HSE_IN*%
X140920000Y-92100000D03*
%TO.P,Y1,2,2*%
%TO.N,GND*%
X140920000Y-94300000D03*
%TO.P,Y1,3,3*%
%TO.N,/HSE_OUT*%
X142620000Y-94300000D03*
%TO.P,Y1,4,4*%
%TO.N,GND*%
X142620000Y-92100000D03*
%TD*%
D13*
%TO.P,R3,1*%
%TO.N,/I2C2_SDA*%
X153310000Y-103700000D03*
%TO.P,R3,2*%
%TO.N,+3.3V*%
X152290000Y-103700000D03*
%TD*%
D14*
%TO.P,J3,1,VBUS*%
%TO.N,VBUS*%
X170045000Y-93000000D03*
%TO.P,J3,2,D-*%
%TO.N,/USB_D-*%
X170045000Y-92350000D03*
%TO.P,J3,3,D+*%
%TO.N,/USB_D+*%
X170045000Y-91700000D03*
%TO.P,J3,4,ID*%
%TO.N,unconnected-(J3-ID-Pad4)*%
X170045000Y-91050000D03*
%TO.P,J3,5,GND*%
%TO.N,GND*%
X170045000Y-90400000D03*
D15*
%TO.P,J3,6,Shield*%
%TO.N,unconnected-(J3-Shield-Pad6)*%
X173895000Y-95575000D03*
D16*
X170095000Y-95425000D03*
X170095000Y-87975000D03*
D15*
X173895000Y-87825000D03*
%TD*%
D17*
%TO.P,R1,1*%
%TO.N,GND*%
X173663000Y-100711500D03*
%TO.P,R1,2*%
%TO.N,/POWER_LED*%
X174683000Y-100711500D03*
%TD*%
D18*
%TO.P,R4,1*%
%TO.N,/SW_BOOT0*%
X139649000Y-89827000D03*
%TO.P,R4,2*%
%TO.N,/BOOT0*%
X139649000Y-88807000D03*
%TD*%
D19*
%TO.P,R5,1*%
%TO.N,+3.3V*%
X162300000Y-90590000D03*
%TO.P,R5,2*%
%TO.N,/USB_D+*%
X162300000Y-91610000D03*
%TD*%
D10*
%TO.P,C8,1*%
%TO.N,+3.3V*%
X151008000Y-87158000D03*
%TO.P,C8,2*%
%TO.N,GND*%
X151968000Y-87158000D03*
%TD*%
D11*
%TO.P,C9,1*%
%TO.N,+3.3V*%
X147800000Y-90180000D03*
%TO.P,C9,2*%
%TO.N,GND*%
X147800000Y-89220000D03*
%TD*%
D20*
%TO.P,J2,1,Pin_1*%
%TO.N,+3.3V*%
X154381000Y-81443000D03*
D21*
%TO.P,J2,2,Pin_2*%
%TO.N,/USART1_TX*%
X151841000Y-81443000D03*
%TO.P,J2,3,Pin_3*%
%TO.N,/USART1_RX*%
X149301000Y-81443000D03*
%TO.P,J2,4,Pin_4*%
%TO.N,GND*%
X146761000Y-81443000D03*
%TD*%
D22*
%TO.P,FB1,1*%
%TO.N,+3.3VA*%
X144787500Y-96400000D03*
%TO.P,FB1,2*%
%TO.N,+3.3V*%
X143212500Y-96400000D03*
%TD*%
D23*
%TO.P,C10,1*%
%TO.N,+3.3V*%
X157380000Y-98800000D03*
%TO.P,C10,2*%
%TO.N,GND*%
X156420000Y-98800000D03*
%TD*%
D11*
%TO.P,C12,1*%
%TO.N,+3.3VA*%
X146700000Y-94680000D03*
%TO.P,C12,2*%
%TO.N,GND*%
X146700000Y-93720000D03*
%TD*%
D20*
%TO.P,J4,1,Pin_1*%
%TO.N,+3.3V*%
X165862000Y-81443000D03*
D21*
%TO.P,J4,2,Pin_2*%
%TO.N,/SWDIO*%
X163322000Y-81443000D03*
%TO.P,J4,3,Pin_3*%
%TO.N,/SWCLK*%
X160782000Y-81443000D03*
%TO.P,J4,4,Pin_4*%
%TO.N,GND*%
X158242000Y-81443000D03*
%TD*%
D11*
%TO.P,C11,1*%
%TO.N,+3.3VA*%
X148000000Y-94680000D03*
%TO.P,C11,2*%
%TO.N,GND*%
X148000000Y-93720000D03*
%TD*%
D24*
%TO.P,C6,1*%
%TO.N,+3.3V*%
X159842000Y-90020000D03*
%TO.P,C6,2*%
%TO.N,GND*%
X159842000Y-90980000D03*
%TD*%
D25*
%TO.P,C2,1*%
%TO.N,+3.3V*%
X168200000Y-104150000D03*
%TO.P,C2,2*%
%TO.N,GND*%
X168200000Y-102250000D03*
%TD*%
D20*
%TO.P,J1,1,Pin_1*%
%TO.N,+3.3V*%
X147828000Y-106299000D03*
D21*
%TO.P,J1,2,Pin_2*%
%TO.N,/I2C2_SCL*%
X150368000Y-106299000D03*
%TO.P,J1,3,Pin_3*%
%TO.N,/I2C2_SDA*%
X152908000Y-106299000D03*
%TO.P,J1,4,Pin_4*%
%TO.N,GND*%
X155448000Y-106299000D03*
%TD*%
D26*
%TO.P,D1,1,K*%
%TO.N,/POWER_LED*%
X174300000Y-99187500D03*
%TO.P,D1,2,A*%
%TO.N,+3.3V*%
X174300000Y-97612500D03*
%TD*%
D27*
%TO.P,SW1,*%
%TO.N,*%
X136280000Y-85413000D03*
X134070000Y-85413000D03*
X136280000Y-92713000D03*
X134070000Y-92713000D03*
D28*
%TO.P,SW1,1,A*%
%TO.N,GND*%
X136930000Y-86813000D03*
%TO.P,SW1,2,B*%
%TO.N,/SW_BOOT0*%
X136930000Y-89813000D03*
%TO.P,SW1,3,C*%
%TO.N,+3.3V*%
X136930000Y-91313000D03*
%TD*%
D17*
%TO.P,R2,1*%
%TO.N,/I2C2_SCL*%
X150090000Y-103700000D03*
%TO.P,R2,2*%
%TO.N,+3.3V*%
X151110000Y-103700000D03*
%TD*%
D29*
%TO.P,C5,1*%
%TO.N,+3.3V*%
X150625000Y-85700000D03*
%TO.P,C5,2*%
%TO.N,GND*%
X152175000Y-85700000D03*
%TD*%
D11*
%TO.P,C7,1*%
%TO.N,/HSE_OUT*%
X144200000Y-94780000D03*
%TO.P,C7,2*%
%TO.N,GND*%
X144200000Y-93820000D03*
%TD*%
D30*
%TO.P,U1,1,GND*%
%TO.N,GND*%
X165600000Y-100557000D03*
%TO.P,U1,2,VO*%
%TO.N,+3.3V*%
X163300000Y-100557000D03*
D31*
X163300000Y-106857000D03*
D30*
%TO.P,U1,3,VI*%
%TO.N,VBUS*%
X161000000Y-100557000D03*
%TD*%
D23*
%TO.P,C13,1*%
%TO.N,+3.3V*%
X141780000Y-96500000D03*
%TO.P,C13,2*%
%TO.N,GND*%
X140820000Y-96500000D03*
%TD*%
D32*
%TO.P,C1,1*%
%TO.N,VBUS*%
X162384000Y-97800000D03*
%TO.P,C1,2*%
%TO.N,GND*%
X164284000Y-97800000D03*
%TD*%
D33*
%TO.P,U2,1,VBAT*%
%TO.N,+3.3V*%
X149837500Y-90250000D03*
%TO.P,U2,2,PC13*%
%TO.N,unconnected-(U2-PC13-Pad2)*%
X149837500Y-90750000D03*
%TO.P,U2,3,PC14*%
%TO.N,unconnected-(U2-PC14-Pad3)*%
X149837500Y-91250000D03*
%TO.P,U2,4,PC15*%
%TO.N,unconnected-(U2-PC15-Pad4)*%
X149837500Y-91750000D03*
%TO.P,U2,5,PD0*%
%TO.N,/HSE_IN*%
X149837500Y-92250000D03*
%TO.P,U2,6,PD1*%
%TO.N,/HSE_OUT*%
X149837500Y-92750000D03*
%TO.P,U2,7,NRST*%
%TO.N,/NRST*%
X149837500Y-93250000D03*
%TO.P,U2,8,VSSA*%
%TO.N,GND*%
X149837500Y-93750000D03*
%TO.P,U2,9,VDDA*%
%TO.N,+3.3VA*%
X149837500Y-94250000D03*
%TO.P,U2,10,PA0*%
%TO.N,unconnected-(U2-PA0-Pad10)*%
X149837500Y-94750000D03*
%TO.P,U2,11,PA1*%
%TO.N,unconnected-(U2-PA1-Pad11)*%
X149837500Y-95250000D03*
%TO.P,U2,12,PA2*%
%TO.N,unconnected-(U2-PA2-Pad12)*%
X149837500Y-95750000D03*
D34*
%TO.P,U2,13,PA3*%
%TO.N,unconnected-(U2-PA3-Pad13)*%
X151250000Y-97162500D03*
%TO.P,U2,14,PA4*%
%TO.N,unconnected-(U2-PA4-Pad14)*%
X151750000Y-97162500D03*
%TO.P,U2,15,PA5*%
%TO.N,unconnected-(U2-PA5-Pad15)*%
X152250000Y-97162500D03*
%TO.P,U2,16,PA6*%
%TO.N,unconnected-(U2-PA6-Pad16)*%
X152750000Y-97162500D03*
%TO.P,U2,17,PA7*%
%TO.N,unconnected-(U2-PA7-Pad17)*%
X153250000Y-97162500D03*
%TO.P,U2,18,PB0*%
%TO.N,unconnected-(U2-PB0-Pad18)*%
X153750000Y-97162500D03*
%TO.P,U2,19,PB1*%
%TO.N,unconnected-(U2-PB1-Pad19)*%
X154250000Y-97162500D03*
%TO.P,U2,20,PB2*%
%TO.N,unconnected-(U2-PB2-Pad20)*%
X154750000Y-97162500D03*
%TO.P,U2,21,PB10*%
%TO.N,/I2C2_SCL*%
X155250000Y-97162500D03*
%TO.P,U2,22,PB11*%
%TO.N,/I2C2_SDA*%
X155750000Y-97162500D03*
%TO.P,U2,23,VSS*%
%TO.N,GND*%
X156250000Y-97162500D03*
%TO.P,U2,24,VDD*%
%TO.N,+3.3V*%
X156750000Y-97162500D03*
D33*
%TO.P,U2,25,PB12*%
%TO.N,unconnected-(U2-PB12-Pad25)*%
X158162500Y-95750000D03*
%TO.P,U2,26,PB13*%
%TO.N,unconnected-(U2-PB13-Pad26)*%
X158162500Y-95250000D03*
%TO.P,U2,27,PB14*%
%TO.N,unconnected-(U2-PB14-Pad27)*%
X158162500Y-94750000D03*
%TO.P,U2,28,PB15*%
%TO.N,unconnected-(U2-PB15-Pad28)*%
X158162500Y-94250000D03*
%TO.P,U2,29,PA8*%
%TO.N,unconnected-(U2-PA8-Pad29)*%
X158162500Y-93750000D03*
%TO.P,U2,30,PA9*%
%TO.N,unconnected-(U2-PA9-Pad30)*%
X158162500Y-93250000D03*
%TO.P,U2,31,PA10*%
%TO.N,unconnected-(U2-PA10-Pad31)*%
X158162500Y-92750000D03*
%TO.P,U2,32,PA11*%
%TO.N,/USB_D-*%
X158162500Y-92250000D03*
%TO.P,U2,33,PA12*%
%TO.N,/USB_D+*%
X158162500Y-91750000D03*
%TO.P,U2,34,PA13*%
%TO.N,/SWDIO*%
X158162500Y-91250000D03*
%TO.P,U2,35,VSS*%
%TO.N,GND*%
X158162500Y-90750000D03*
%TO.P,U2,36,VDD*%
%TO.N,+3.3V*%
X158162500Y-90250000D03*
D34*
%TO.P,U2,37,PA14*%
%TO.N,/SWCLK*%
X156750000Y-88837500D03*
%TO.P,U2,38,PA15*%
%TO.N,unconnected-(U2-PA15-Pad38)*%
X156250000Y-88837500D03*
%TO.P,U2,39,PB3*%
%TO.N,unconnected-(U2-PB3-Pad39)*%
X155750000Y-88837500D03*
%TO.P,U2,40,PB4*%
%TO.N,unconnected-(U2-PB4-Pad40)*%
X155250000Y-88837500D03*
%TO.P,U2,41,PB5*%
%TO.N,unconnected-(U2-PB5-Pad41)*%
X154750000Y-88837500D03*
%TO.P,U2,42,PB6*%
%TO.N,/USART1_TX*%
X154250000Y-88837500D03*
%TO.P,U2,43,PB7*%
%TO.N,/USART1_RX*%
X153750000Y-88837500D03*
%TO.P,U2,44,BOOT0*%
%TO.N,/BOOT0*%
X153250000Y-88837500D03*
%TO.P,U2,45,PB8*%
%TO.N,unconnected-(U2-PB8-Pad45)*%
X152750000Y-88837500D03*
%TO.P,U2,46,PB9*%
%TO.N,unconnected-(U2-PB9-Pad46)*%
X152250000Y-88837500D03*
%TO.P,U2,47,VSS*%
%TO.N,GND*%
X151750000Y-88837500D03*
%TO.P,U2,48,VDD*%
%TO.N,+3.3V*%
X151250000Y-88837500D03*
%TD*%
D35*
%TO.N,GND*%
X169800000Y-102300000D03*
X145200000Y-92800000D03*
X145422753Y-90704778D03*
D36*
X168000000Y-90000000D03*
D35*
X174000000Y-101900000D03*
D36*
X151600000Y-94200000D03*
X138700000Y-85800000D03*
X151100000Y-100600000D03*
D35*
X139700000Y-96300000D03*
X165400000Y-98400000D03*
X166200000Y-102400000D03*
D36*
X146600000Y-88900000D03*
X152200000Y-90500000D03*
D35*
X165400000Y-96900000D03*
X165000000Y-102400000D03*
X156800000Y-99800000D03*
X161000000Y-91000000D03*
%TO.N,+3.3V*%
X154050000Y-102350000D03*
X150405378Y-101905378D03*
X152610500Y-102407705D03*
X151450000Y-102850000D03*
%TD*%
D37*
%TO.N,GND*%
X151750000Y-88837500D02*
X151750000Y-90050000D01*
X151968000Y-87158000D02*
X151968000Y-86632000D01*
X148000000Y-93720000D02*
X146700000Y-93720000D01*
D38*
X143100000Y-91620000D02*
X142620000Y-92100000D01*
D37*
X151968000Y-86632000D02*
X152175000Y-86425000D01*
D38*
X146920000Y-89220000D02*
X146600000Y-88900000D01*
D37*
X159842000Y-90980000D02*
X159842000Y-90940000D01*
X152175000Y-86425000D02*
X152175000Y-85700000D01*
D38*
X137687000Y-86813000D02*
X138700000Y-85800000D01*
X145200000Y-92820000D02*
X144200000Y-93820000D01*
X140820000Y-96500000D02*
X140820000Y-94400000D01*
D37*
X159612000Y-90750000D02*
X159842000Y-90980000D01*
D38*
X151380000Y-99500000D02*
X151380000Y-100320000D01*
X173663000Y-101563000D02*
X174000000Y-101900000D01*
D37*
X158162500Y-90750000D02*
X159612000Y-90750000D01*
X168400000Y-90400000D02*
X168000000Y-90000000D01*
X151968000Y-87778880D02*
X151968000Y-87158000D01*
X149837500Y-93750000D02*
X151150000Y-93750000D01*
D38*
X140820000Y-94400000D02*
X140920000Y-94300000D01*
X145200000Y-92800000D02*
X145200000Y-92820000D01*
D37*
X160980000Y-90980000D02*
X161000000Y-91000000D01*
D38*
X139900000Y-96500000D02*
X139700000Y-96300000D01*
X140820000Y-96500000D02*
X139900000Y-96500000D01*
D37*
X156420000Y-99420000D02*
X156800000Y-99800000D01*
D38*
X136930000Y-86813000D02*
X137687000Y-86813000D01*
D37*
X156250000Y-97162500D02*
X156250000Y-98630000D01*
X151750000Y-90050000D02*
X152200000Y-90500000D01*
X151750000Y-87996880D02*
X151968000Y-87778880D01*
D38*
X145422753Y-90704778D02*
X145115222Y-90704778D01*
X145115222Y-90704778D02*
X144200000Y-91620000D01*
X151380000Y-100320000D02*
X151100000Y-100600000D01*
X147800000Y-89220000D02*
X146920000Y-89220000D01*
D37*
X156250000Y-98630000D02*
X156420000Y-98800000D01*
D38*
X173663000Y-100711500D02*
X173663000Y-101563000D01*
D37*
X156420000Y-98800000D02*
X156420000Y-99420000D01*
X151750000Y-88837500D02*
X151750000Y-87996880D01*
D38*
X168200000Y-102250000D02*
X168350000Y-102250000D01*
D37*
X151150000Y-93750000D02*
X151600000Y-94200000D01*
X148030000Y-93750000D02*
X148000000Y-93720000D01*
X159842000Y-90980000D02*
X160980000Y-90980000D01*
D38*
X164284000Y-97800000D02*
X164500000Y-97800000D01*
X144200000Y-91620000D02*
X143100000Y-91620000D01*
D37*
X170045000Y-90400000D02*
X168400000Y-90400000D01*
X149837500Y-93750000D02*
X148030000Y-93750000D01*
%TO.N,+3.3V*%
X158162500Y-90250000D02*
X159612000Y-90250000D01*
D38*
X157600000Y-101157000D02*
X157600000Y-106150000D01*
X138400000Y-97550000D02*
X138400000Y-91450000D01*
D37*
X150625000Y-86425000D02*
X150625000Y-85700000D01*
D38*
X149800000Y-90112500D02*
X149837500Y-90150000D01*
X159842000Y-90020000D02*
X161730000Y-90020000D01*
X147828000Y-104482756D02*
X147828000Y-106299000D01*
X151110000Y-103700000D02*
X151110000Y-103190000D01*
X163160000Y-90590000D02*
X169084500Y-84665500D01*
D37*
X151008000Y-87808000D02*
X151008000Y-87158000D01*
D38*
X143212500Y-96400000D02*
X141880000Y-96400000D01*
X171700000Y-99200000D02*
X172350000Y-98550000D01*
X149700000Y-85700000D02*
X149800000Y-85800000D01*
X174300000Y-97612500D02*
X173287500Y-97612500D01*
X151110000Y-103190000D02*
X151450000Y-102850000D01*
X139550000Y-98700000D02*
X138400000Y-97550000D01*
D37*
X151008000Y-87158000D02*
X151008000Y-86808000D01*
D38*
X154050000Y-102350000D02*
X155243000Y-101157000D01*
X171700000Y-102850000D02*
X170400000Y-104150000D01*
X147828000Y-106299000D02*
X147828000Y-105615500D01*
X149700000Y-85700000D02*
X145000000Y-85700000D01*
X170400000Y-104150000D02*
X168200000Y-104150000D01*
X165862000Y-81443000D02*
X169084500Y-84665500D01*
X147828000Y-105615500D02*
X140912500Y-98700000D01*
X157600000Y-101157000D02*
X157600000Y-99020000D01*
X172350000Y-98550000D02*
X172350000Y-87931000D01*
X155243000Y-101157000D02*
X157600000Y-101157000D01*
D37*
X159612000Y-90250000D02*
X159842000Y-90020000D01*
D38*
X141880000Y-96400000D02*
X141780000Y-96500000D01*
X139387000Y-91313000D02*
X136930000Y-91313000D01*
X140912500Y-98700000D02*
X143212500Y-96400000D01*
X157600000Y-99020000D02*
X157380000Y-98800000D01*
X152290000Y-102728205D02*
X152290000Y-103700000D01*
X161730000Y-90020000D02*
X162300000Y-90590000D01*
X162300000Y-90590000D02*
X163160000Y-90590000D01*
X172350000Y-87931000D02*
X165862000Y-81443000D01*
X167350000Y-109150000D02*
X170400000Y-106100000D01*
X152290000Y-103700000D02*
X151110000Y-103700000D01*
X164562000Y-80143000D02*
X155681000Y-80143000D01*
D37*
X149837500Y-90250000D02*
X147870000Y-90250000D01*
X157380000Y-98680000D02*
X157380000Y-98800000D01*
D38*
X149800000Y-85800000D02*
X149800000Y-90112500D01*
D37*
X156750000Y-97162500D02*
X156750000Y-98050000D01*
D38*
X140912500Y-98700000D02*
X139550000Y-98700000D01*
X171700000Y-99200000D02*
X171700000Y-102850000D01*
X150405378Y-101905378D02*
X147828000Y-104482756D01*
X173287500Y-97612500D02*
X171700000Y-99200000D01*
D37*
X151250000Y-88050000D02*
X151008000Y-87808000D01*
D38*
X165862000Y-81443000D02*
X164562000Y-80143000D01*
X149700000Y-85700000D02*
X150625000Y-85700000D01*
X145000000Y-85700000D02*
X139387000Y-91313000D01*
X152610500Y-102407705D02*
X152290000Y-102728205D01*
D37*
X156750000Y-98050000D02*
X157380000Y-98680000D01*
D38*
X170400000Y-106100000D02*
X170400000Y-104150000D01*
X157600000Y-106150000D02*
X160600000Y-109150000D01*
D37*
X151250000Y-88837500D02*
X151250000Y-88050000D01*
X147870000Y-90250000D02*
X147800000Y-90180000D01*
D38*
X155681000Y-80143000D02*
X154381000Y-81443000D01*
X160600000Y-109150000D02*
X167350000Y-109150000D01*
D37*
X151008000Y-86808000D02*
X150625000Y-86425000D01*
%TO.N,/NRST*%
X150420000Y-96651880D02*
X150420000Y-99500000D01*
X152350000Y-94721880D02*
X150420000Y-96651880D01*
X152350000Y-93889339D02*
X152350000Y-94721880D01*
X149837500Y-93250000D02*
X151710661Y-93250000D01*
X151710661Y-93250000D02*
X152350000Y-93889339D01*
%TO.N,/HSE_IN*%
X141870000Y-93150000D02*
X140920000Y-92200000D01*
X143630000Y-93150000D02*
X141870000Y-93150000D01*
X148996880Y-92250000D02*
X148146880Y-91400000D01*
X144200000Y-92580000D02*
X143630000Y-93150000D01*
X148146880Y-91400000D02*
X145500000Y-91400000D01*
X149837500Y-92250000D02*
X148996880Y-92250000D01*
X145500000Y-91400000D02*
X144320000Y-92580000D01*
X140920000Y-92200000D02*
X140920000Y-92100000D01*
X144320000Y-92580000D02*
X144200000Y-92580000D01*
%TO.N,/HSE_OUT*%
X144200000Y-94780000D02*
X143100000Y-94780000D01*
X144509999Y-94780000D02*
X144200000Y-94780000D01*
X148690000Y-93090000D02*
X146199999Y-93090000D01*
X143100000Y-94780000D02*
X142620000Y-94300000D01*
X148700000Y-93100000D02*
X148690000Y-93090000D01*
X146199999Y-93090000D02*
X144509999Y-94780000D01*
X148996880Y-92750000D02*
X148700000Y-93046880D01*
X149837500Y-92750000D02*
X148996880Y-92750000D01*
X148700000Y-93046880D02*
X148700000Y-93100000D01*
%TO.N,+3.3VA*%
X146507500Y-94680000D02*
X144787500Y-96400000D01*
X149837500Y-94250000D02*
X148996880Y-94250000D01*
X148000000Y-94680000D02*
X146700000Y-94680000D01*
X146700000Y-94680000D02*
X146507500Y-94680000D01*
X148566880Y-94680000D02*
X148000000Y-94680000D01*
X148996880Y-94250000D02*
X148566880Y-94680000D01*
%TO.N,/POWER_LED*%
X174300000Y-99187500D02*
X174683000Y-99570500D01*
X174683000Y-99570500D02*
X174683000Y-100711500D01*
%TO.N,/I2C2_SCL*%
X155250000Y-97162500D02*
X155250000Y-98050000D01*
X150090000Y-106021000D02*
X150368000Y-106299000D01*
X155250000Y-98050000D02*
X150090000Y-103210000D01*
X150090000Y-103700000D02*
X150090000Y-106021000D01*
X150090000Y-103210000D02*
X150090000Y-103700000D01*
%TO.N,/I2C2_SDA*%
X153310000Y-102090000D02*
X153310000Y-103700000D01*
X155750000Y-99650000D02*
X153310000Y-102090000D01*
X153310000Y-103700000D02*
X153310000Y-105897000D01*
X155750000Y-97162500D02*
X155750000Y-99650000D01*
X153310000Y-105897000D02*
X152908000Y-106299000D01*
%TO.N,/USART1_TX*%
X155300000Y-84902000D02*
X151841000Y-81443000D01*
X154250000Y-87850000D02*
X155300000Y-86800000D01*
X155300000Y-86800000D02*
X155300000Y-84902000D01*
X154250000Y-88837500D02*
X154250000Y-87850000D01*
%TO.N,/USART1_RX*%
X153750000Y-88837500D02*
X153750000Y-87642894D01*
X154600000Y-85300000D02*
X151943000Y-82643000D01*
X153750000Y-87642894D02*
X154600000Y-86792894D01*
X154600000Y-86792894D02*
X154600000Y-85300000D01*
X151943000Y-82643000D02*
X150501000Y-82643000D01*
X150501000Y-82643000D02*
X149301000Y-81443000D01*
D39*
%TO.N,/USB_D-*%
X169069999Y-92350000D02*
X170045000Y-92350000D01*
X158162500Y-92250000D02*
X158932410Y-92250000D01*
X168969999Y-92250000D02*
X169069999Y-92350000D01*
X158162500Y-92250000D02*
X168969999Y-92250000D01*
%TO.N,/USB_D+*%
X158212500Y-91800000D02*
X168969999Y-91800000D01*
X169069999Y-91700000D02*
X170045000Y-91700000D01*
X158162500Y-91750000D02*
X158212499Y-91799999D01*
X158212499Y-91799999D02*
X158212500Y-91800000D01*
X158162500Y-91750000D02*
X158212500Y-91800000D01*
X168969999Y-91800000D02*
X169069999Y-91700000D01*
D37*
%TO.N,/SWDIO*%
X157075000Y-91003120D02*
X157321880Y-91250000D01*
X163322000Y-81443000D02*
X163322000Y-83749880D01*
X163322000Y-83749880D02*
X157075000Y-89996880D01*
X157075000Y-89996880D02*
X157075000Y-91003120D01*
X157321880Y-91250000D02*
X158162500Y-91250000D01*
%TO.N,/SWCLK*%
X156750000Y-88050000D02*
X156750000Y-88837500D01*
X160782000Y-84018000D02*
X156750000Y-88050000D01*
X160782000Y-81443000D02*
X160782000Y-84018000D01*
%TO.N,/SW_BOOT0*%
X136944000Y-89827000D02*
X136930000Y-89813000D01*
X139649000Y-89827000D02*
X136944000Y-89827000D01*
%TO.N,/BOOT0*%
X144856000Y-83600000D02*
X139649000Y-88807000D01*
X153700000Y-86985788D02*
X153700000Y-85400000D01*
X153700000Y-85400000D02*
X151900000Y-83600000D01*
X151900000Y-83600000D02*
X144856000Y-83600000D01*
X153250000Y-88837500D02*
X153250000Y-87435788D01*
X153250000Y-87435788D02*
X153700000Y-86985788D01*
%TD*%
%TA.AperFunction,Conductor*%
%TO.N,+3.3V*%
G36*
X163350000Y-99375000D02*
G01*
X163799941Y-99389061D01*
X163866330Y-99410828D01*
X163885102Y-99426696D01*
X164115040Y-99663931D01*
X164147563Y-99725768D01*
X164150000Y-99750231D01*
X164150000Y-103500000D01*
X166675000Y-103525000D01*
X168849014Y-103546525D01*
X168915855Y-103566872D01*
X168935900Y-103583273D01*
X169050623Y-103699136D01*
X169164115Y-103813758D01*
X169197295Y-103875244D01*
X169200000Y-103901002D01*
X169200000Y-105299212D01*
X169180315Y-105366251D01*
X169164374Y-105386195D01*
X168935662Y-105618566D01*
X168874607Y-105652536D01*
X168849256Y-105655567D01*
X166349962Y-105695238D01*
X166349961Y-105695238D01*
X166050000Y-105700000D01*
X166050000Y-105999999D01*
X166050000Y-108098638D01*
X166030315Y-108165677D01*
X166013681Y-108186319D01*
X165786319Y-108413681D01*
X165724996Y-108447166D01*
X165698638Y-108450000D01*
X161351913Y-108450000D01*
X161284874Y-108430315D01*
X161263570Y-108413014D01*
X161040974Y-108187019D01*
X161007955Y-108125444D01*
X161005331Y-108098126D01*
X161041667Y-105700000D01*
X161044685Y-105500772D01*
X161065383Y-105434040D01*
X161081657Y-105414309D01*
X161313800Y-105185657D01*
X161375375Y-105152638D01*
X161400814Y-105150000D01*
X162149999Y-105150000D01*
X162150000Y-105150000D01*
X162450000Y-105150000D01*
X162477638Y-103547030D01*
X162500000Y-102250000D01*
X162543933Y-99701815D01*
X162564771Y-99635128D01*
X162582385Y-99614175D01*
X162812297Y-99395148D01*
X162874414Y-99363159D01*
X162901697Y-99360990D01*
X163350000Y-99375000D01*
G37*
%TD.AperFunction*%
%TD*%
%TA.AperFunction,Conductor*%
%TO.N,VBUS*%
G36*
X168876035Y-92710097D02*
G01*
X168876626Y-92708279D01*
X168885906Y-92711294D01*
X168885909Y-92711296D01*
X168906984Y-92718143D01*
X168924948Y-92725584D01*
X168944695Y-92735646D01*
X168966584Y-92739112D01*
X168985500Y-92743653D01*
X169006566Y-92750499D01*
X169035923Y-92750499D01*
X169035947Y-92750500D01*
X169038480Y-92750500D01*
X169094167Y-92750500D01*
X169161206Y-92770185D01*
X169181848Y-92786819D01*
X169222235Y-92827206D01*
X169325009Y-92872585D01*
X169350135Y-92875500D01*
X170739864Y-92875499D01*
X170739879Y-92875497D01*
X170739882Y-92875497D01*
X170764987Y-92872586D01*
X170773989Y-92870137D01*
X170774572Y-92872282D01*
X170831202Y-92864867D01*
X170894387Y-92894690D01*
X170899692Y-92899692D01*
X170963681Y-92963681D01*
X170997166Y-93025004D01*
X171000000Y-93051362D01*
X171000000Y-93148638D01*
X170980315Y-93215677D01*
X170963681Y-93236319D01*
X170736319Y-93463681D01*
X170674996Y-93497166D01*
X170648638Y-93500000D01*
X166800000Y-93500000D01*
X166200125Y-93497553D01*
X164784000Y-93486000D01*
X163367990Y-93474447D01*
X163367989Y-93474447D01*
X163068000Y-93472000D01*
X163069737Y-93771994D01*
X163097964Y-98648432D01*
X163078668Y-98715585D01*
X163061901Y-98736577D01*
X162836362Y-98963427D01*
X162775136Y-98997089D01*
X162748427Y-99000000D01*
X162100000Y-99000000D01*
X162100000Y-99049999D01*
X162100000Y-101650358D01*
X162080315Y-101717397D01*
X162065745Y-101735924D01*
X161834595Y-101978343D01*
X161774089Y-102013276D01*
X161750761Y-102016629D01*
X161259839Y-102040007D01*
X160352698Y-102083204D01*
X160284798Y-102066730D01*
X160261231Y-102049087D01*
X160159377Y-101951968D01*
X160038429Y-101836642D01*
X160003495Y-101776133D01*
X160000000Y-101746900D01*
X160000000Y-93151362D01*
X160019685Y-93084323D01*
X160036319Y-93063681D01*
X160263681Y-92836319D01*
X160325004Y-92802834D01*
X160351362Y-92800000D01*
X160400000Y-92800000D01*
X160700000Y-92800000D01*
X160999953Y-92794916D01*
X160999957Y-92794916D01*
X166300043Y-92705084D01*
X166900000Y-92700000D01*
X168833970Y-92700000D01*
X168876035Y-92710097D01*
G37*
%TD.AperFunction*%
%TD*%
%TA.AperFunction,Conductor*%
%TO.N,GND*%
G36*
X166915677Y-96219685D02*
G01*
X166936319Y-96236319D01*
X167163681Y-96463681D01*
X167197166Y-96525004D01*
X167200000Y-96551362D01*
X167200000Y-100900000D01*
X170048638Y-100900000D01*
X170115677Y-100919685D01*
X170136319Y-100936319D01*
X170363681Y-101163681D01*
X170397166Y-101225004D01*
X170400000Y-101251362D01*
X170400000Y-102948638D01*
X170380315Y-103015677D01*
X170363681Y-103036319D01*
X170136319Y-103263681D01*
X170074996Y-103297166D01*
X170048638Y-103300000D01*
X169083914Y-103300000D01*
X169026622Y-103285971D01*
X169004821Y-103274613D01*
X168937980Y-103254266D01*
X168937977Y-103254265D01*
X168937972Y-103254264D01*
X168852042Y-103241040D01*
X164578272Y-103198724D01*
X164511431Y-103178377D01*
X164466201Y-103125122D01*
X164455500Y-103074730D01*
X164455500Y-99742637D01*
X164454747Y-99727496D01*
X164451558Y-99695484D01*
X164451059Y-99690839D01*
X164451059Y-99690837D01*
X164417947Y-99583561D01*
X164417945Y-99583557D01*
X164417944Y-99583554D01*
X164399587Y-99548653D01*
X164385424Y-99521724D01*
X164335494Y-99452807D01*
X164322478Y-99430148D01*
X164310564Y-99403164D01*
X164300000Y-99353082D01*
X164300000Y-99300000D01*
X164300000Y-99000000D01*
X164000000Y-99000000D01*
X163651362Y-99000000D01*
X163584323Y-98980315D01*
X163563681Y-98963681D01*
X163428033Y-98828033D01*
X163394548Y-98766710D01*
X163392876Y-98723421D01*
X163403459Y-98646664D01*
X163390808Y-96461267D01*
X163410103Y-96394121D01*
X163427111Y-96372888D01*
X163563683Y-96236316D01*
X163625005Y-96202834D01*
X163651362Y-96200000D01*
X166848638Y-96200000D01*
X166915677Y-96219685D01*
G37*
%TD.AperFunction*%
%TD*%
M02*
